# Blender v2.78 (sub 0) OBJ File: 'assets.blend'
# www.blender.org
mtllib fleshwall.mtl
o Cube.002_Cube.007
v -0.500000 0.000000 4.000000
v -0.500000 6.000000 4.000000
v -0.500000 0.000000 -4.000000
v -0.500000 6.000000 -4.000000
v 0.500000 0.000000 4.000000
v 0.500000 6.000000 4.000000
v 0.500000 0.000000 -4.000000
v 0.500000 6.000000 -4.000000
vt 0.8262 0.5608
vt 0.4251 0.5608
vt 0.4251 0.0083
vt 0.8262 0.0083
vt 0.0909 0.9917
vt 0.0909 0.5773
vt 0.1578 0.5773
vt 0.1578 0.9917
vt 0.4091 0.5608
vt 0.0080 0.5608
vt 0.0080 0.0083
vt 0.4091 0.0083
vt 0.0080 0.9917
vt 0.0080 0.5773
vt 0.0749 0.5773
vt 0.0749 0.9917
vt 0.8422 0.0083
vt 0.9091 0.0083
vt 0.9091 0.5608
vt 0.8422 0.5608
vt 0.9920 0.5608
vt 0.9251 0.5608
vt 0.9251 0.0083
vt 0.9920 0.0083
vn -1.0000 0.0000 0.0000
vn 0.0000 0.0000 -1.0000
vn 1.0000 0.0000 0.0000
vn 0.0000 0.0000 1.0000
vn 0.0000 -1.0000 0.0000
vn 0.0000 1.0000 0.0000
usemtl Stone_Wall
s off
f 1/1/1 2/2/1 4/3/1 3/4/1
f 3/5/2 4/6/2 8/7/2 7/8/2
f 7/9/3 8/10/3 6/11/3 5/12/3
f 5/13/4 6/14/4 2/15/4 1/16/4
f 3/17/5 7/18/5 5/19/5 1/20/5
f 8/21/6 4/22/6 2/23/6 6/24/6
