# Blender v2.78 (sub 0) OBJ File: ''
# www.blender.org
mtllib chair_brown.mtl
o Cube_Cube.001
v -0.700000 -0.509605 0.700000
v -0.700000 0.190395 0.700000
v -0.700000 -0.509605 -0.700000
v -0.700000 0.190395 -0.700000
v 0.700000 -0.509605 0.700000
v 0.700000 0.190395 0.700000
v 0.700000 -0.509605 -0.700000
v 0.700000 0.190395 -0.700000
v -0.700000 -0.509605 -0.500000
v -0.700000 -0.159605 -0.300000
v -0.700000 -0.159605 -0.100000
v -0.700000 -0.159605 0.100000
v -0.700000 -0.159605 0.300000
v -0.700000 -0.509605 0.500000
v 0.500000 -0.509605 -0.700000
v 0.300000 -0.159605 -0.700000
v 0.100000 -0.159605 -0.700000
v -0.100000 -0.159605 -0.700000
v -0.300000 -0.159605 -0.700000
v -0.500000 -0.509605 -0.700000
v 0.700000 -0.509605 0.500000
v 0.700000 -0.159605 0.300000
v 0.700000 -0.159605 0.100000
v 0.700000 -0.159605 -0.100000
v 0.700000 -0.159605 -0.300000
v 0.700000 -0.509605 -0.500000
v -0.500000 -0.509605 0.700000
v -0.300000 -0.159605 0.700000
v -0.100000 -0.159605 0.700000
v 0.100000 -0.159605 0.700000
v 0.300000 -0.159605 0.700000
v 0.500000 -0.509605 0.700000
v -0.500000 -0.509605 -0.500000
v -0.500000 -0.159605 -0.300000
v -0.500000 -0.159605 -0.100000
v -0.500000 -0.159605 0.100000
v -0.500000 -0.159605 0.300000
v -0.500000 -0.509605 0.500000
v -0.300000 -0.159605 -0.500000
v -0.300000 -0.159605 -0.300000
v -0.300000 -0.159605 -0.100000
v -0.300000 -0.159605 0.100000
v -0.300000 -0.159605 0.300000
v -0.300000 -0.159605 0.500000
v -0.100000 -0.159605 -0.500000
v -0.100000 -0.159605 -0.300000
v -0.100000 -0.159605 -0.100000
v -0.100000 -0.159605 0.100000
v -0.100000 -0.159605 0.300000
v -0.100000 -0.159605 0.500000
v 0.100000 -0.159605 -0.500000
v 0.100000 -0.159605 -0.300000
v 0.100000 -0.159605 -0.100000
v 0.100000 -0.159605 0.100000
v 0.100000 -0.159605 0.300000
v 0.100000 -0.159605 0.500000
v 0.300000 -0.159605 -0.500000
v 0.300000 -0.159605 -0.300000
v 0.300000 -0.159605 -0.100000
v 0.300000 -0.159605 0.100000
v 0.300000 -0.159605 0.300000
v 0.300000 -0.159605 0.500000
v 0.500000 -0.509605 -0.500000
v 0.500000 -0.159605 -0.300000
v 0.500000 -0.159605 -0.100000
v 0.500000 -0.159605 0.100000
v 0.500000 -0.159605 0.300000
v 0.500000 -0.509605 0.500000
v -0.700000 -1.209605 0.500000
v -0.700000 -1.209605 0.700000
v -0.500000 -1.209605 -0.700000
v -0.700000 -1.209605 -0.700000
v 0.700000 -1.209605 -0.500000
v 0.700000 -1.209605 -0.700000
v 0.500000 -1.209605 0.700000
v 0.700000 -1.209605 0.700000
v -0.700000 -1.209605 -0.500000
v 0.500000 -1.209605 -0.700000
v 0.700000 -1.209605 0.500000
v -0.500000 -1.209605 0.700000
v -0.500000 -1.209605 0.500000
v -0.500000 -1.209605 -0.500000
v 0.500000 -1.209605 0.500000
v 0.500000 -1.209605 -0.500000
v -0.700000 0.190395 0.500000
v -0.700000 0.190395 0.300000
v -0.700000 0.190395 0.100000
v -0.700000 0.190395 -0.100000
v -0.700000 0.190395 -0.300000
v -0.700000 0.190395 -0.500000
v -0.500000 0.190395 -0.700000
v -0.300000 0.190395 -0.700000
v -0.100000 0.190395 -0.700000
v 0.100000 0.190395 -0.700000
v 0.300000 0.190395 -0.700000
v 0.500000 0.190395 -0.700000
v 0.700000 0.190395 -0.500000
v 0.700000 0.190395 -0.300000
v 0.700000 0.190395 -0.100000
v 0.700000 0.190395 0.100000
v 0.700000 0.190395 0.300000
v 0.700000 0.190395 0.500000
v 0.500000 0.190395 0.700000
v 0.300000 0.190395 0.700000
v 0.100000 0.190395 0.700000
v -0.100000 0.190395 0.700000
v -0.300000 0.190395 0.700000
v -0.500000 0.190395 0.700000
v 0.700000 0.890395 0.700000
v 0.500000 0.190395 -0.300000
v 0.500000 0.190395 -0.100000
v 0.500000 0.190395 0.100000
v 0.500000 0.190395 0.300000
v 0.500000 0.190395 0.500000
v 0.700000 0.890395 0.500000
v 0.300000 0.190395 -0.300000
v 0.300000 0.190395 -0.100000
v 0.300000 0.190395 0.100000
v 0.300000 0.190395 0.300000
v 0.300000 0.190395 0.500000
v 0.700000 0.890395 -0.700000
v 0.100000 0.190395 -0.300000
v 0.100000 0.190395 -0.100000
v 0.100000 0.190395 0.100000
v 0.100000 0.190395 0.300000
v 0.100000 0.190395 0.500000
v 0.500000 0.890395 -0.700000
v -0.100000 0.190395 -0.300000
v -0.100000 0.190395 -0.100000
v -0.100000 0.190395 0.100000
v -0.100000 0.190395 0.300000
v -0.100000 0.190395 0.500000
v -0.700000 0.890395 -0.700000
v -0.300000 0.190395 -0.300000
v -0.300000 0.190395 -0.100000
v -0.300000 0.190395 0.100000
v -0.300000 0.190395 0.300000
v -0.300000 0.190395 0.500000
v -0.700000 0.890395 -0.500000
v -0.500000 0.190395 -0.300000
v -0.500000 0.190395 -0.100000
v -0.500000 0.190395 0.100000
v -0.500000 0.190395 0.300000
v -0.500000 0.190395 0.500000
v -0.700000 0.750395 -0.500000
v -0.700000 0.750395 -0.700000
v 0.500000 0.750395 -0.700000
v 0.700000 0.750395 -0.700000
v 0.700000 0.750395 0.500000
v 0.700000 0.750395 0.700000
v -0.500000 0.750395 0.700000
v -0.700000 0.750395 0.700000
v -0.700000 0.750395 0.500000
v -0.700000 0.750395 -0.300000
v -0.500000 0.750395 -0.700000
v -0.300000 0.750395 -0.700000
v -0.100000 0.750395 -0.700000
v 0.100000 0.750395 -0.700000
v 0.300000 0.750395 -0.700000
v 0.700000 0.750395 -0.500000
v 0.700000 0.750395 -0.300000
v 0.500000 0.750395 0.700000
v 0.500000 0.750395 0.500000
v 0.700000 0.750395 -0.301948
v 0.500000 0.750395 -0.300000
v 0.500000 0.750395 -0.301948
v 0.300000 0.750395 -0.300000
v -0.500000 0.890395 -0.301948
v 0.100000 0.750395 -0.300000
v -0.500000 0.750395 -0.301948
v -0.100000 0.750395 -0.300000
v -0.700000 0.750395 -0.301948
v -0.300000 0.750395 -0.300000
v -0.500000 0.750395 0.500000
v -0.700000 0.890395 -0.301948
v -0.500000 0.750395 -0.300000
v -0.500000 0.890395 0.700000
v -0.700000 0.890395 0.700000
v -0.700000 0.890395 0.500000
v -0.700000 0.890395 -0.300000
v -0.500000 0.890395 -0.700000
v -0.300000 0.890395 -0.700000
v -0.100000 0.890395 -0.700000
v 0.100000 0.890395 -0.700000
v 0.300000 0.890395 -0.700000
v 0.700000 0.890395 -0.500000
v 0.700000 0.890395 -0.300000
v 0.500000 0.890395 0.700000
v 0.500000 0.890395 0.500000
v 0.500000 0.890395 -0.300000
v 0.300000 0.890395 -0.300000
v 0.100000 0.890395 -0.300000
v -0.100000 0.890395 -0.300000
v -0.300000 0.890395 -0.300000
v -0.500000 0.890395 0.500000
v -0.500000 0.890395 -0.300000
v 0.700000 0.890395 -0.301948
v 0.500000 0.890395 -0.301948
v -0.700000 1.590395 -0.500000
v -0.700000 1.590395 -0.700000
v 0.500000 1.730395 -0.700000
v 0.700000 1.590395 -0.700000
v -0.700000 1.590395 -0.300000
v -0.500000 1.730395 -0.700000
v -0.300000 1.940395 -0.700000
v -0.100000 1.940395 -0.700000
v 0.100000 1.940395 -0.700000
v 0.300000 1.940395 -0.700000
v 0.700000 1.590395 -0.500000
v 0.700000 1.590395 -0.300000
v 0.500000 1.730395 -0.500000
v 0.500000 1.730395 -0.300000
v 0.300000 1.940395 -0.500000
v 0.300000 1.940395 -0.300000
v 0.100000 1.940395 -0.500000
v 0.100000 1.940395 -0.300000
v -0.100000 1.940395 -0.500000
v -0.100000 1.940395 -0.300000
v -0.300000 1.940395 -0.500000
v -0.300000 1.940395 -0.300000
v -0.500000 1.730395 -0.500000
v -0.500000 1.730395 -0.300000
vt 0.2761 0.3611
vt 0.2761 0.2442
vt 0.3108 0.2442
vt 0.3456 0.2442
vt 0.3803 0.2442
vt 0.4150 0.2442
vt 0.4498 0.2442
vt 0.4845 0.2442
vt 0.5193 0.2442
vt 0.5193 0.3611
vt 0.4845 0.3611
vt 0.4498 0.3026
vt 0.4150 0.3026
vt 0.3803 0.3026
vt 0.3456 0.3026
vt 0.3108 0.3611
vt 0.2542 0.1275
vt 0.2542 0.2444
vt 0.2194 0.2444
vt 0.1847 0.2444
vt 0.1499 0.2444
vt 0.1152 0.2444
vt 0.0804 0.2444
vt 0.0457 0.2444
vt 0.0109 0.2444
vt 0.0109 0.1275
vt 0.0457 0.1275
vt 0.0804 0.1860
vt 0.1152 0.1860
vt 0.1499 0.1860
vt 0.1847 0.1860
vt 0.2194 0.1275
vt 0.7844 0.1274
vt 0.7844 0.2442
vt 0.7497 0.2442
vt 0.7149 0.2442
vt 0.6802 0.2442
vt 0.6454 0.2442
vt 0.6107 0.2442
vt 0.5759 0.2442
vt 0.5412 0.2442
vt 0.5412 0.1274
vt 0.5759 0.1274
vt 0.6107 0.1858
vt 0.6454 0.1858
vt 0.6802 0.1858
vt 0.7149 0.1858
vt 0.7497 0.1274
vt 0.2761 0.7329
vt 0.2761 0.6159
vt 0.3108 0.6159
vt 0.3456 0.6159
vt 0.3803 0.6159
vt 0.4150 0.6159
vt 0.4498 0.6159
vt 0.4845 0.6159
vt 0.5193 0.6159
vt 0.5193 0.7329
vt 0.4845 0.7329
vt 0.4498 0.6744
vt 0.4150 0.6744
vt 0.3803 0.6744
vt 0.3456 0.6744
vt 0.3108 0.7329
vt 0.6544 0.8720
vt 0.6892 0.8720
vt 0.6892 0.9889
vt 0.6544 0.9889
vt 0.7149 0.7914
vt 0.6802 0.7914
vt 0.6802 0.6978
vt 0.7149 0.6978
vt 0.0109 0.0105
vt 0.0457 0.0105
vt 0.5759 0.9293
vt 0.5759 0.9895
vt 0.5412 0.9895
vt 0.5412 0.9293
vt 0.2194 0.7250
vt 0.2194 0.6916
vt 0.2542 0.6916
vt 0.2542 0.7250
vt 0.2194 0.6582
vt 0.2542 0.6582
vt 0.2194 0.6247
vt 0.2542 0.6247
vt 0.9844 0.2656
vt 0.9844 0.3258
vt 0.9496 0.3258
vt 0.9496 0.2656
vt 0.7111 0.8720
vt 0.7458 0.8720
vt 0.7458 0.9889
vt 0.7111 0.9889
vt 0.6544 0.8124
vt 0.6892 0.8124
vt 0.0804 0.7919
vt 0.0804 0.7585
vt 0.1152 0.7585
vt 0.1152 0.7919
vt 0.1499 0.7585
vt 0.1499 0.7919
vt 0.1847 0.7585
vt 0.1847 0.7919
vt 0.0109 0.8130
vt 0.0457 0.8130
vt 0.0457 0.8725
vt 0.0109 0.8725
vt 0.9891 0.7596
vt 0.9891 0.8197
vt 0.9543 0.8197
vt 0.9543 0.7596
vt 0.0457 0.7585
vt 0.0457 0.7250
vt 0.0804 0.7250
vt 0.1152 0.7250
vt 0.1499 0.7250
vt 0.1847 0.7250
vt 0.2194 0.7585
vt 0.0109 0.7250
vt 0.0109 0.6916
vt 0.0457 0.6916
vt 0.0804 0.6916
vt 0.1152 0.6916
vt 0.1499 0.6916
vt 0.1847 0.6916
vt 0.0109 0.6582
vt 0.0457 0.6582
vt 0.0804 0.6582
vt 0.1152 0.6582
vt 0.1499 0.6582
vt 0.1847 0.6582
vt 0.0109 0.6247
vt 0.0457 0.6247
vt 0.0804 0.6247
vt 0.1152 0.6247
vt 0.1499 0.6247
vt 0.1847 0.6247
vt 0.9324 0.6427
vt 0.9324 0.7029
vt 0.8977 0.7029
vt 0.8977 0.6427
vt 0.0457 0.5913
vt 0.0804 0.5913
vt 0.1152 0.5913
vt 0.1499 0.5913
vt 0.1847 0.5913
vt 0.2194 0.5913
vt 0.3108 0.8498
vt 0.2761 0.8498
vt 0.7111 0.8124
vt 0.7458 0.8124
vt 0.0804 0.5579
vt 0.1152 0.5579
vt 0.1499 0.5579
vt 0.1847 0.5579
vt 0.5978 0.8124
vt 0.6326 0.8124
vt 0.6326 0.8720
vt 0.5978 0.8720
vt 0.3893 0.8709
vt 0.4241 0.8709
vt 0.4241 0.9043
vt 0.3893 0.9043
vt 0.3327 0.8709
vt 0.3674 0.8709
vt 0.3674 0.9043
vt 0.3327 0.9043
vt 0.2761 0.8709
vt 0.3108 0.8709
vt 0.3108 0.9043
vt 0.2761 0.9043
vt 0.4460 0.8709
vt 0.4807 0.8709
vt 0.4807 0.9043
vt 0.4460 0.9043
vt 0.2194 0.0105
vt 0.2542 0.0105
vt 0.9844 0.4427
vt 0.9496 0.4427
vt 0.5193 0.4779
vt 0.4845 0.4779
vt 0.9324 0.8197
vt 0.8977 0.8197
vt 0.5412 0.8124
vt 0.5759 0.8124
vt 0.7497 0.0105
vt 0.7844 0.0105
vt 0.3108 0.4779
vt 0.2761 0.4779
vt 0.9543 0.6427
vt 0.9891 0.6427
vt 0.5193 0.8498
vt 0.4845 0.8498
vt 0.6326 0.9889
vt 0.5978 0.9889
vt 0.0457 0.9894
vt 0.0109 0.9894
vt 0.5412 0.0105
vt 0.5759 0.0105
vt 0.9277 0.3997
vt 0.9277 0.4331
vt 0.8306 0.4331
vt 0.8306 0.3997
vt 0.8410 0.0440
vt 0.8410 0.0774
vt 0.8063 0.0774
vt 0.8063 0.0440
vt 0.8410 0.1108
vt 0.8063 0.1108
vt 0.8410 0.1443
vt 0.8410 0.1777
vt 0.8063 0.1777
vt 0.8063 0.1443
vt 0.8410 0.2111
vt 0.8063 0.2111
vt 0.0457 0.3380
vt 0.0109 0.3380
vt 0.9800 0.0105
vt 0.9800 0.0440
vt 0.9453 0.0440
vt 0.9453 0.0105
vt 0.9105 0.0440
vt 0.9105 0.0105
vt 0.8758 0.0440
vt 0.8758 0.0105
vt 0.8410 0.0105
vt 0.7497 0.7914
vt 0.7497 0.6978
vt 0.1847 0.3380
vt 0.1499 0.3380
vt 0.9800 0.0774
vt 0.9453 0.0774
vt 0.9105 0.0774
vt 0.8758 0.0774
vt 0.5759 0.7914
vt 0.5412 0.7914
vt 0.5412 0.6978
vt 0.5759 0.6978
vt 0.2761 0.1507
vt 0.3108 0.1507
vt 0.9800 0.1108
vt 0.9453 0.1108
vt 0.9105 0.1108
vt 0.8758 0.1108
vt 0.8063 0.6216
vt 0.8063 0.5882
vt 0.9034 0.5882
vt 0.9034 0.6216
vt 0.4845 0.5224
vt 0.5193 0.5224
vt 0.2194 0.3380
vt 0.7844 0.7914
vt 0.7844 0.6978
vt 0.9800 0.1443
vt 0.9800 0.1777
vt 0.9453 0.1777
vt 0.9453 0.1443
vt 0.9105 0.1777
vt 0.9105 0.1443
vt 0.8758 0.1777
vt 0.8758 0.1443
vt 0.6107 0.7914
vt 0.6107 0.6978
vt 0.2542 0.3380
vt 0.9800 0.2111
vt 0.9453 0.2111
vt 0.9105 0.2111
vt 0.8758 0.2111
vt 0.7497 0.3377
vt 0.7149 0.3377
vt 0.4845 0.1507
vt 0.5193 0.1507
vt 0.9800 0.2446
vt 0.9453 0.2446
vt 0.9105 0.2446
vt 0.8758 0.2446
vt 0.8410 0.2446
vt 0.7497 0.3611
vt 0.7149 0.3611
vt 0.6454 0.6978
vt 0.6107 0.6744
vt 0.6454 0.6744
vt 0.4498 0.1507
vt 0.4498 0.1274
vt 0.4845 0.1274
vt 0.7844 0.3377
vt 0.7844 0.3611
vt 0.2761 0.1274
vt 0.3108 0.1274
vt 0.7149 0.6744
vt 0.7497 0.6744
vt 0.9277 0.5882
vt 0.9277 0.6216
vt 0.0804 0.3380
vt 0.0804 0.3614
vt 0.0457 0.3614
vt 0.5759 0.6744
vt 0.4845 0.4990
vt 0.5193 0.4990
vt 0.1152 0.3380
vt 0.1152 0.3614
vt 0.5412 0.3377
vt 0.5759 0.3377
vt 0.5759 0.3611
vt 0.5412 0.3611
vt 0.6802 0.6744
vt 0.2156 0.9470
vt 0.1809 0.9470
vt 0.1809 0.8130
vt 0.2156 0.8130
vt 0.0109 0.3614
vt 0.2761 0.5224
vt 0.3108 0.5224
vt 0.9324 0.9344
vt 0.8977 0.9344
vt 0.8977 0.8408
vt 0.9324 0.8408
vt 0.9543 0.8408
vt 0.9891 0.8408
vt 0.9891 0.9344
vt 0.9543 0.9344
vt 0.6454 0.7914
vt 0.1023 0.8464
vt 0.0676 0.8464
vt 0.0676 0.8130
vt 0.1023 0.8130
vt 0.1590 0.8464
vt 0.1242 0.8464
vt 0.1242 0.8130
vt 0.1590 0.8130
vt 0.1847 0.3614
vt 0.2194 0.3614
vt 0.2194 0.5017
vt 0.1847 0.5368
vt 0.2542 0.3614
vt 0.2542 0.4783
vt 0.7844 0.6744
vt 0.7497 0.5341
vt 0.7844 0.5575
vt 0.7497 0.4779
vt 0.7149 0.4779
vt 0.6107 0.4990
vt 0.6454 0.4990
vt 0.4498 0.0105
vt 0.4845 0.0105
vt 0.7844 0.4779
vt 0.7149 0.4990
vt 0.0804 0.5368
vt 0.0457 0.5017
vt 0.5759 0.5341
vt 0.1152 0.5368
vt 0.6802 0.4990
vt 0.0109 0.4783
vt 0.2761 0.4990
vt 0.3108 0.4990
vt 0.1590 0.9805
vt 0.1242 0.9805
vt 0.5193 0.1274
vt 0.8063 0.4331
vt 0.8063 0.3997
vt 0.5412 0.6744
vt 0.1499 0.3614
vt 0.2761 0.9588
vt 0.2761 0.9254
vt 0.3004 0.9254
vt 0.3004 0.9588
vt 0.8063 0.9312
vt 0.8063 0.8978
vt 0.8306 0.8978
vt 0.8306 0.9312
vt 0.9034 0.4542
vt 0.9277 0.4542
vt 0.9496 0.4637
vt 0.9844 0.4637
vt 0.9844 0.5978
vt 0.9496 0.5978
vt 0.4501 0.1274
vt 0.4501 0.1507
vt 0.8063 0.2656
vt 0.8306 0.2656
vt 0.7152 0.3377
vt 0.7152 0.3611
vt 0.1023 0.9805
vt 0.0676 0.9805
vt 0.8063 0.8767
vt 0.8063 0.8433
vt 0.8410 0.8433
vt 0.8410 0.8767
vt 0.8758 0.8433
vt 0.8758 0.8767
vt 0.8063 0.8099
vt 0.8410 0.8099
vt 0.8758 0.8099
vt 0.8063 0.7764
vt 0.8410 0.7764
vt 0.8758 0.7764
vt 0.8063 0.7430
vt 0.8063 0.7096
vt 0.8410 0.7096
vt 0.8410 0.7430
vt 0.8758 0.7096
vt 0.8758 0.7430
vt 0.8063 0.6761
vt 0.8410 0.6761
vt 0.8758 0.6761
vt 0.8063 0.6427
vt 0.8410 0.6427
vt 0.8758 0.6427
vt 0.5193 0.0105
vt 0.5412 0.5575
vt 0.1499 0.5368
vn -1.0000 0.0000 0.0000
vn 0.0000 0.0000 -1.0000
vn 1.0000 0.0000 0.0000
vn 0.0000 0.0000 1.0000
vn 0.8682 -0.4961 0.0000
vn 0.0000 -1.0000 0.0000
vn -0.8682 -0.4961 0.0000
vn 0.0000 -0.4961 0.8682
vn 0.0000 -0.4961 -0.8682
vn 0.5500 -0.6285 0.5500
vn 0.5500 -0.6285 -0.5500
vn -0.5500 -0.6285 0.5500
vn -0.5500 -0.6285 -0.5500
vn 0.0000 1.0000 0.0000
vn 0.5735 0.8192 0.0000
vn 0.7241 0.6897 0.0000
vn -0.7241 0.6897 0.0000
vn -0.5735 0.8192 0.0000
usemtl Material.002
s off
f 1/1/1 2/2/1 85/3/1 86/4/1 87/5/1 88/6/1 89/7/1 90/8/1 4/9/1 3/10/1 9/11/1 10/12/1 11/13/1 12/14/1 13/15/1 14/16/1
f 3/17/2 4/18/2 91/19/2 92/20/2 93/21/2 94/22/2 95/23/2 96/24/2 8/25/2 7/26/2 15/27/2 16/28/2 17/29/2 18/30/2 19/31/2 20/32/2
f 7/33/3 8/34/3 97/35/3 98/36/3 99/37/3 100/38/3 101/39/3 102/40/3 6/41/3 5/42/3 21/43/3 22/44/3 23/45/3 24/46/3 25/47/3 26/48/3
f 5/49/4 6/50/4 103/51/4 104/52/4 105/53/4 106/54/4 107/55/4 108/56/4 2/57/4 1/58/4 27/59/4 28/60/4 29/61/4 30/62/4 31/63/4 32/64/4
f 33/65/4 9/66/4 77/67/4 82/68/4
f 134/69/4 128/70/4 171/71/4 173/72/4
f 15/27/2 7/26/2 74/73/2 78/74/2
f 38/75/5 44/76/5 28/77/5 27/78/5
f 44/79/6 50/80/6 29/81/6 28/82/6
f 50/80/6 56/83/6 30/84/6 29/81/6
f 56/83/6 62/85/6 31/86/6 30/84/6
f 62/87/7 68/88/7 32/89/7 31/90/7
f 26/91/4 63/92/4 84/93/4 73/94/4
f 9/66/8 33/65/8 34/95/8 10/96/8
f 10/97/6 34/98/6 35/99/6 11/100/6
f 11/100/6 35/99/6 36/101/6 12/102/6
f 12/102/6 36/101/6 37/103/6 13/104/6
f 13/105/9 37/106/9 38/107/9 14/108/9
f 20/109/5 19/110/5 39/111/5 33/112/5
f 33/113/10 39/114/10 40/115/10 34/98/10
f 34/98/6 40/115/6 41/116/6 35/99/6
f 35/99/6 41/116/6 42/117/6 36/101/6
f 36/101/6 42/117/6 43/118/6 37/103/6
f 37/103/11 43/118/11 44/79/11 38/119/11
f 19/120/6 18/121/6 45/122/6 39/114/6
f 39/114/6 45/122/6 46/123/6 40/115/6
f 40/115/6 46/123/6 47/124/6 41/116/6
f 41/116/6 47/124/6 48/125/6 42/117/6
f 42/117/6 48/125/6 49/126/6 43/118/6
f 43/118/6 49/126/6 50/80/6 44/79/6
f 18/121/6 17/127/6 51/128/6 45/122/6
f 45/122/6 51/128/6 52/129/6 46/123/6
f 46/123/6 52/129/6 53/130/6 47/124/6
f 47/124/6 53/130/6 54/131/6 48/125/6
f 48/125/6 54/131/6 55/132/6 49/126/6
f 49/126/6 55/132/6 56/83/6 50/80/6
f 17/127/6 16/133/6 57/134/6 51/128/6
f 51/128/6 57/134/6 58/135/6 52/129/6
f 52/129/6 58/135/6 59/136/6 53/130/6
f 53/130/6 59/136/6 60/137/6 54/131/6
f 54/131/6 60/137/6 61/138/6 55/132/6
f 55/132/6 61/138/6 62/85/6 56/83/6
f 16/139/7 15/140/7 63/141/7 57/142/7
f 57/134/12 63/143/12 64/144/12 58/135/12
f 58/135/6 64/144/6 65/145/6 59/136/6
f 59/136/6 65/145/6 66/146/6 60/137/6
f 60/137/6 66/146/6 67/147/6 61/138/6
f 61/138/13 67/147/13 68/148/13 62/85/13
f 5/49/4 32/64/4 75/149/4 76/150/4
f 63/92/8 26/91/8 25/151/8 64/152/8
f 64/144/6 25/153/6 24/154/6 65/145/6
f 65/145/6 24/154/6 23/155/6 66/146/6
f 66/146/6 23/155/6 22/156/6 67/147/6
f 67/157/9 22/158/9 21/159/9 68/160/9
f 83/161/6 79/162/6 76/163/6 75/164/6
f 69/165/6 81/166/6 80/167/6 70/168/6
f 72/169/6 71/170/6 82/171/6 77/172/6
f 78/173/6 74/174/6 73/175/6 84/176/6
f 3/17/2 20/32/2 71/177/2 72/178/2
f 32/89/1 68/88/1 83/179/1 75/180/1
f 9/11/1 3/10/1 72/181/1 77/182/1
f 63/141/1 15/140/1 78/183/1 84/184/1
f 38/75/3 27/78/3 80/185/3 81/186/3
f 7/33/3 26/48/3 73/187/3 74/188/3
f 1/1/1 14/16/1 69/189/1 70/190/1
f 20/109/3 33/112/3 82/191/3 71/192/3
f 27/59/4 1/58/4 70/193/4 80/194/4
f 68/160/2 21/159/2 79/195/2 83/196/2
f 14/108/2 38/107/2 81/197/2 69/198/2
f 21/43/3 5/42/3 76/199/3 79/200/3
f 114/201/1 103/202/1 162/203/1 163/204/1
f 114/205/14 120/206/14 104/207/14 103/208/14
f 120/206/14 126/209/14 105/210/14 104/207/14
f 132/211/14 138/212/14 107/213/14 106/214/14
f 138/212/14 144/215/14 108/216/14 107/213/14
f 8/25/2 96/24/2 147/217/2 148/218/2
f 98/219/14 110/220/14 111/221/14 99/222/14
f 99/222/14 111/221/14 112/223/14 100/224/14
f 100/224/14 112/223/14 113/225/14 101/226/14
f 101/226/14 113/225/14 114/205/14 102/227/14
f 140/228/4 134/69/4 173/72/4 176/229/4
f 93/21/2 92/20/2 156/230/2 157/231/2
f 110/220/14 116/232/14 117/233/14 111/221/14
f 111/221/14 117/233/14 118/234/14 112/223/14
f 112/223/14 118/234/14 119/235/14 113/225/14
f 113/225/14 119/235/14 120/206/14 114/205/14
f 110/236/4 98/237/4 161/238/4 165/239/4
f 85/3/1 2/2/1 152/240/1 153/241/1
f 116/232/14 122/242/14 123/243/14 117/233/14
f 117/233/14 123/243/14 124/244/14 118/234/14
f 118/234/14 124/244/14 125/245/14 119/235/14
f 119/235/14 125/245/14 126/209/14 120/206/14
f 108/246/3 144/247/3 174/248/3 151/249/3
f 2/57/4 108/56/4 151/250/4 152/251/4
f 92/20/2 91/19/2 155/252/2 156/230/2
f 89/253/4 140/228/4 176/229/4 154/254/4
f 128/255/14 134/256/14 135/257/14 129/258/14
f 129/258/14 135/257/14 136/259/14 130/260/14
f 130/260/14 136/259/14 137/261/14 131/262/14
f 131/262/14 137/261/14 138/212/14 132/211/14
f 116/263/4 110/236/4 165/239/4 167/264/4
f 91/19/2 4/18/2 146/265/2 155/252/2
f 134/256/14 140/266/14 141/267/14 135/257/14
f 135/257/14 141/267/14 142/268/14 136/259/14
f 136/259/14 142/268/14 143/269/14 137/261/14
f 137/261/14 143/269/14 144/215/14 138/212/14
f 98/36/3 97/35/3 160/270/3 161/271/3
f 4/9/1 90/8/1 145/272/1 146/273/1
f 140/266/14 89/274/14 88/275/14 141/267/14
f 141/267/14 88/275/14 87/276/14 142/268/14
f 142/268/14 87/276/14 86/277/14 143/269/14
f 143/269/14 86/277/14 85/278/14 144/215/14
f 161/271/3 160/270/3 186/279/3 187/280/3
f 169/281/4 167/264/4 191/282/4 192/283/4
f 145/272/1 154/284/1 180/285/1 139/286/1
f 160/270/3 148/287/3 121/288/3 186/279/3
f 153/241/1 152/240/1 178/289/1 179/290/1
f 176/229/4 173/72/4 194/291/4 196/292/4
f 151/249/3 174/248/3 195/293/3 177/294/3
f 147/217/2 159/295/2 185/296/2 127/297/2
f 167/264/4 165/239/4 190/298/4 191/282/4
f 152/251/4 151/250/4 177/299/4 178/300/4
f 159/295/2 158/301/2 184/302/2 185/296/2
f 150/303/3 149/304/3 115/305/3 109/306/3
f 173/72/4 171/71/4 193/307/4 194/291/4
f 174/308/6 153/309/6 172/310/6 170/311/6
f 148/218/2 147/217/2 127/297/2 121/312/2
f 95/23/2 94/22/2 158/301/2 159/295/2
f 103/51/4 6/50/4 150/313/4 162/314/4
f 144/315/2 85/316/2 153/317/2 174/318/2
f 96/24/2 95/23/2 159/295/2 147/217/2
f 6/41/3 102/40/3 149/304/3 150/303/3
f 102/319/2 114/320/2 163/321/2 149/322/2
f 97/35/3 8/34/3 148/287/3 160/270/3
f 122/323/4 116/263/4 167/264/4 169/281/4
f 90/8/1 89/7/1 154/284/1 145/272/1
f 195/324/14 179/325/14 178/326/14 177/327/14
f 115/328/14 189/329/14 188/330/14 109/331/14
f 182/332/2 181/333/2 204/334/2 205/335/2
f 181/333/2 133/336/2 200/337/2 204/334/2
f 180/338/4 196/292/4 222/339/4 203/340/4
f 187/280/3 186/279/3 209/341/3 210/342/3
f 192/283/4 191/282/4 214/343/4 216/344/4
f 139/286/1 180/285/1 203/345/1 199/346/1
f 186/279/3 121/288/3 202/347/3 209/341/3
f 196/292/4 194/291/4 220/348/4 222/339/4
f 127/297/2 185/296/2 208/349/2 201/350/2
f 191/282/4 190/298/4 212/351/4 214/343/4
f 185/296/2 184/302/2 207/352/2 208/349/2
f 194/291/4 193/307/4 218/353/4 220/348/4
f 121/312/2 127/297/2 201/350/2 202/354/2
f 154/254/4 176/229/4 196/292/4 180/338/4
f 155/252/2 146/265/2 133/336/2 181/333/2
f 162/314/4 150/313/4 109/355/4 188/356/4
f 189/329/14 115/328/14 197/357/14 198/358/14
f 156/230/2 155/252/2 181/333/2 182/332/2
f 146/273/1 145/272/1 139/286/1 133/359/1
f 163/204/1 162/203/1 188/360/1 189/361/1
f 165/239/4 161/238/4 187/362/4 190/298/4
f 157/231/2 156/230/2 182/332/2 183/363/2
f 164/364/2 166/365/2 198/366/2 197/367/2
f 170/368/2 172/369/2 175/370/2 168/371/2
f 195/293/3 174/248/3 170/372/3 168/373/3
f 149/374/6 163/375/6 166/376/6 164/377/6
f 153/241/1 179/290/1 175/378/1 172/379/1
f 163/204/1 189/361/1 198/380/1 166/381/1
f 115/305/3 149/304/3 164/382/3 197/383/3
f 179/325/14 195/324/14 168/384/14 175/385/14
f 202/386/15 201/387/15 211/388/15 209/389/15
f 209/389/15 211/388/15 212/390/15 210/391/15
f 201/387/16 208/392/16 213/393/16 211/388/16
f 211/388/16 213/393/16 214/394/16 212/390/16
f 208/392/14 207/395/14 215/396/14 213/393/14
f 213/393/14 215/396/14 216/397/14 214/394/14
f 206/398/14 205/399/14 219/400/14 217/401/14
f 217/401/14 219/400/14 220/402/14 218/403/14
f 205/399/17 204/404/17 221/405/17 219/400/17
f 219/400/17 221/405/17 222/406/17 220/402/17
f 204/404/18 200/407/18 199/408/18 221/405/18
f 221/405/18 199/408/18 203/409/18 222/406/18
f 133/359/1 139/286/1 199/346/1 200/410/1
f 190/298/4 187/362/4 210/411/4 212/351/4
f 183/363/2 182/332/2 205/335/2 206/412/2
usemtl Material.003
f 126/209/14 132/211/14 106/214/14 105/210/14
f 94/22/2 93/21/2 157/231/2 158/301/2
f 122/242/14 128/255/14 129/258/14 123/243/14
f 123/243/14 129/258/14 130/260/14 124/244/14
f 124/244/14 130/260/14 131/262/14 125/245/14
f 125/245/14 131/262/14 132/211/14 126/209/14
f 158/301/2 157/231/2 183/363/2 184/302/2
f 128/70/4 122/323/4 169/281/4 171/71/4
f 184/302/2 183/363/2 206/412/2 207/352/2
f 171/71/4 169/281/4 192/283/4 193/307/4
f 207/395/14 206/398/14 217/401/14 215/396/14
f 215/396/14 217/401/14 218/403/14 216/397/14
f 193/307/4 192/283/4 216/344/4 218/353/4
