# Blender v2.78 (sub 0) OBJ File: 'assets.blend'
# www.blender.org
mtllib Level 2.mtl
o Cube.005
v 2.000000 1.000000 20.000000
v 2.000000 -1.000000 18.000000
v 7.000000 -1.000000 20.000000
v 7.000000 1.000000 20.000000
v 7.000000 -1.000000 18.000000
v 7.000000 1.000000 18.000000
v 4.000000 -1.000000 18.000000
v 2.509258 1.000000 18.000000
v 3.500000 -1.000000 8.000000
v 2.509258 1.000000 8.000000
v 7.000000 -1.000000 18.000000
v 6.998052 0.979376 18.000000
v 7.000000 -1.000000 8.000000
v 2.000000 -1.000000 18.000000
v 2.000000 7.000000 18.000000
v 2.000000 7.000000 8.000000
v 8.000000 7.000000 8.000000
v 8.000000 5.000000 8.000000
v 8.000000 5.000000 21.000000
v 8.000000 7.000000 18.000000
v 2.000000 -1.000000 8.000000
v 2.000000 7.000000 18.000000
v 2.000000 7.000000 8.000000
v 2.509258 1.000000 13.000000
v 7.000000 1.000000 13.000000
v 2.000000 7.000000 13.000000
v 2.009258 4.000000 8.000000
v 2.009258 4.000000 18.000000
v 8.000000 7.000000 13.000000
v 6.969511 4.020624 18.000000
v 7.000000 1.000000 8.000000
v 7.500000 4.000000 13.000000
v 2.009258 4.000000 13.000000
v -8.000000 -1.000000 19.000000
v -8.000000 1.000000 20.000000
v -8.000000 1.000000 18.000000
v 2.000000 -1.000000 26.000000
v -8.000000 -1.000000 24.000000
v 2.000000 -1.000000 13.999999
v -3.000000 1.000000 26.000000
v -8.000000 1.000000 22.000000
v -8.000000 1.000000 15.999999
v -3.078125 1.000000 21.375000
v -8.000000 1.000000 19.000000
v 2.000000 1.000000 26.000002
v 2.000000 1.000000 21.000000
v -5.500000 1.000000 26.000000
v -8.000000 1.000000 21.000000
v 2.000000 1.000000 22.000000
v -8.000000 1.000000 17.000000
v 2.000000 1.000000 18.000000
v -8.000000 1.000000 19.000000
v 0.750000 1.000000 20.000000
v -8.000000 1.000000 19.000000
v -6.750000 1.000000 23.000000
v -6.750000 1.000000 26.000000
v 0.750000 1.000000 14.999999
v 0.750000 1.000000 18.000000
v -0.656250 1.000000 13.999999
v -6.750000 1.000000 14.999999
v -8.000000 -1.000000 13.999999
v -4.250000 1.000000 26.000000
v -1.750000 1.000000 26.000000
v 0.750000 1.000000 23.000000
v 0.750000 7.000000 20.000000
v 2.000000 7.000000 20.000000
v 2.000000 7.000000 21.000000
v -8.000000 7.000000 13.999999
v -4.250000 7.000000 26.000000
v -3.000000 7.000000 24.000000
v -8.000000 7.000000 24.000000
v 2.000000 7.000000 22.000000
v -4.875000 9.000000 13.999999
v 2.000000 7.000000 18.000000
v -6.750000 7.000000 18.125000
v -8.000000 9.000000 18.562500
v -1.750000 7.000000 24.000000
v 2.000000 7.000003 24.000000
v -6.750000 7.000000 26.000002
v -0.187500 7.000000 13.999999
v 2.000000 7.000000 13.999999
v 0.750000 7.000000 21.500000
v 0.750000 7.000000 23.000000
v -2.531250 7.000000 14.999999
v 0.750000 7.000000 14.999999
v -4.250000 7.000000 23.000000
v -6.750000 7.000000 14.999999
v -6.750000 7.000000 23.000000
v 0.750000 7.000000 18.000000
v 6.000000 -1.000000 21.000000
v 6.000000 1.000000 21.000000
v 2.000000 -1.000000 21.000000
v 7.000000 7.000000 20.000000
v 7.000000 7.000000 21.000000
v 2.000000 7.000000 20.000000
v 2.000000 7.000000 21.000000
v 6.998052 0.979376 21.000000
v 7.000000 -1.000000 21.000000
v 8.000000 7.000000 21.000000
v 6.969511 4.020624 21.000000
v -4.250000 11.000000 24.000000
v -3.000001 11.000000 24.000000
v -8.000000 11.000000 24.000000
v 2.000000 12.000000 13.999999
v -3.156250 11.000000 14.999999
v -6.750000 11.000000 19.375000
v -4.250000 11.000000 23.000000
v -6.750000 11.000000 24.000000
v 2.000000 7.000000 20.000000
v 0.750000 7.000000 20.000000
v -6.750000 12.000000 19.500000
v 0.750000 12.000000 20.000000
v 2.000000 12.000000 24.000000
v -8.000000 12.000000 24.000000
v 2.000000 12.000000 20.000000
v -2.375000 12.000000 24.000000
v -3.625000 12.000000 13.999999
v -8.000000 12.000000 13.999999
v 2.000000 12.000000 20.000000
v -6.750000 12.000000 14.999999
v -8.000000 12.000000 19.000000
v 0.750000 12.000000 23.000000
v 0.750000 12.000000 14.999999
v -6.750000 12.000000 24.000000
v 0.750000 12.000000 20.000000
v -6.751745 12.000000 24.000000
v -6.751745 11.000000 24.000000
v -6.751745 11.000000 23.000000
v -6.751745 12.000000 23.000000
v -8.049027 7.000000 24.176659
v -6.799027 7.000000 26.176661
v -8.049027 11.000000 24.176659
v -6.799027 11.000000 24.176659
v -4.137114 7.000000 26.114880
v -2.887113 7.000000 24.114880
v -2.887113 11.000000 24.114880
v -4.137114 11.000000 24.114880
v -6.750000 1.000000 34.000000
v -4.250000 1.000000 34.000000
v -6.750000 7.000000 34.000000
v -4.250000 7.000000 34.000000
v -3.000000 -1.000000 26.000000
v 2.000000 -1.000000 34.000000
v 2.000000 1.000000 34.000000
v -3.000000 1.000000 34.000000
v -3.000000 -1.000000 34.000000
v 8.000000 1.000000 22.000000
v 8.000000 1.000000 21.000000
v 8.000000 7.000000 22.000000
v 8.000000 7.000000 21.000000
vt 0.2407 0.6027
vt 0.2778 0.5114
vt 0.2778 0.6027
vt 0.9569 0.2407
vt 0.9198 0.2041
vt 0.9569 0.2041
vt 0.2778 0.0731
vt 0.2593 0.1278
vt 0.1852 0.0731
vt 0.7037 0.5251
vt 0.7407 0.6165
vt 0.7037 0.6165
vt 0.6706 0.2041
vt 0.6546 0.2681
vt 0.6296 0.2411
vt 0.3148 0.6039
vt 0.4259 0.6037
vt 0.4259 0.6584
vt 0.4628 0.6952
vt 0.4259 0.7498
vt 0.4261 0.6950
vt 0.8796 0.7991
vt 0.8241 0.9817
vt 0.8148 0.7991
vt 0.9905 0.4567
vt 0.9074 0.5480
vt 0.9074 0.4567
vt 0.0000 0.0000
vt 0.0000 0.0000
vt 0.0000 0.0000
vt 0.9166 0.0001
vt 0.9722 0.0914
vt 0.9166 0.0914
vt 0.2778 0.8413
vt 0.2778 0.7500
vt 0.3148 0.8413
vt 0.4259 0.8411
vt 0.5187 0.6941
vt 0.4630 0.7854
vt 0.4630 0.6941
vt 0.7870 0.7991
vt 0.9352 0.6165
vt 0.9352 0.7991
vt 0.7870 0.9817
vt 0.7870 0.7991
vt 0.4444 0.9233
vt 0.4444 0.7772
vt 0.4444 0.9233
vt 0.4630 0.6028
vt 0.5744 0.6028
vt 0.5744 0.6941
vt 0.5184 0.7854
vt 0.9722 0.1827
vt 0.9166 0.1827
vt 0.8611 0.0913
vt 0.8611 0.1826
vt 0.8611 0.0000
vt 0.9905 0.3653
vt 0.9074 0.3653
vt 0.9198 0.2407
vt 0.9011 0.2041
vt 0.1852 0.1278
vt 0.0000 0.0913
vt 0.1852 0.0000
vt 0.7159 0.3502
vt 0.7159 0.2041
vt 0.7391 0.3502
vt 0.0926 0.2192
vt 0.0000 0.0000
vt 0.0000 0.0000
vt 0.0000 0.0000
vt 0.5989 0.5662
vt 0.6481 0.4567
vt 0.6481 0.6028
vt 0.3148 0.2740
vt 0.2778 0.2740
vt 0.3148 0.2192
vt 0.9537 0.9452
vt 1.0000 0.7991
vt 1.0000 0.9452
vt 0.7037 0.5023
vt 0.7407 0.5251
vt 0.6114 0.8037
vt 0.6345 0.6941
vt 0.6345 0.8037
vt 0.9074 0.3653
vt 0.8333 0.5114
vt 0.8333 0.4019
vt 0.0000 0.0000
vt 0.0000 0.0000
vt 0.0000 0.0000
vt 0.0000 0.0000
vt 0.0000 0.0000
vt 0.3148 0.2923
vt 0.4629 0.2820
vt 0.3148 0.3105
vt 0.6114 0.9132
vt 0.6345 0.8037
vt 0.6345 0.9132
vt 0.3148 0.2740
vt 0.3148 0.3288
vt 0.2037 0.5844
vt 0.0926 0.5479
vt 0.2037 0.5114
vt 0.3148 0.2375
vt 0.3148 0.2557
vt 0.4629 0.6028
vt 0.5208 0.4201
vt 0.7222 0.2008
vt 0.7829 0.0913
vt 0.8611 0.2008
vt 0.7662 0.4324
vt 0.7963 0.3653
vt 0.7963 0.5023
vt 0.9537 1.0000
vt 1.0000 1.0000
vt 0.9074 0.6028
vt 0.7963 0.5114
vt 0.6481 0.3653
vt 0.6076 0.4567
vt 0.7222 0.0913
vt 0.7945 0.0183
vt 0.4259 0.1827
vt 0.5000 0.1827
vt 0.6453 0.6256
vt 0.6474 0.6048
vt 0.6474 0.6277
vt 0.6296 0.0000
vt 0.7222 0.0000
vt 0.6296 0.0571
vt 0.5185 0.3653
vt 0.4259 0.3653
vt 0.3935 0.5124
vt 0.3704 0.5854
vt 0.3704 0.5124
vt 0.7037 0.0799
vt 0.6296 0.1461
vt 0.5669 0.9133
vt 0.5484 0.8402
vt 0.5669 0.8402
vt 0.0926 0.6210
vt 0.0000 0.5479
vt 0.0926 0.6027
vt 0.9074 0.5114
vt 0.3151 0.1461
vt 0.2778 0.1827
vt 0.2037 0.6210
vt 0.2037 0.6027
vt 0.2407 0.6210
vt 0.1852 0.7305
vt 0.1852 0.6210
vt 0.3935 0.4018
vt 0.3704 0.4018
vt 0.4629 0.4018
vt 0.6482 0.8174
vt 0.6945 0.7078
vt 0.7870 0.8174
vt 0.9352 0.7991
vt 0.9629 0.6895
vt 0.9907 0.7991
vt 0.0000 0.9132
vt 0.1111 0.8036
vt 0.1111 0.9132
vt 0.5185 0.0000
vt 0.5185 0.1461
vt 0.2778 0.3653
vt 0.3472 0.5114
vt 0.3472 0.4018
vt 0.4629 0.7772
vt 0.4444 0.9233
vt 0.4444 0.8137
vt 0.9013 0.3502
vt 0.9011 0.2407
vt 0.8270 0.3502
vt 0.9011 0.2041
vt 0.9011 0.3502
vt 0.1852 0.9314
vt 0.2778 0.8218
vt 0.2778 0.9314
vt 0.8270 0.3137
vt 0.9666 0.2398
vt 0.9727 0.3152
vt 0.9569 0.2944
vt 0.4629 0.8402
vt 0.6114 0.7854
vt 0.5747 0.8402
vt 0.5747 0.7854
vt 0.5184 0.8402
vt 0.4028 0.8413
vt 0.4213 0.8641
vt 0.4028 0.8641
vt 0.5440 0.3653
vt 0.3819 0.6037
vt 0.3472 0.5854
vt 0.7222 0.1644
vt 0.7037 0.1644
vt 0.7870 0.6165
vt 0.7870 0.7078
vt 0.4629 0.5124
vt 0.6395 0.6050
vt 0.6420 0.6458
vt 0.6395 0.6481
vt 0.2407 0.7305
vt 0.1852 0.8218
vt 0.0926 0.5844
vt 0.9907 0.5982
vt 0.9907 0.6895
vt 0.9352 0.6895
vt 0.8611 0.0000
vt 0.8611 0.0913
vt 0.6296 0.2009
vt 0.6114 0.6941
vt 0.6345 0.6028
vt 0.7592 0.9086
vt 0.7823 0.8174
vt 0.7823 0.9086
vt 0.2778 0.8218
vt 0.4028 0.8413
vt 0.3796 0.8778
vt 0.3796 0.8413
vt 0.9352 0.9361
vt 0.9537 0.9589
vt 0.8796 0.9589
vt 0.1667 0.6438
vt 0.1852 0.7237
vt 0.1667 0.7808
vt 0.1852 0.8036
vt 0.0926 0.8036
vt 0.0833 0.7808
vt 0.0000 0.7808
vt 0.9537 0.8790
vt 0.1852 0.6210
vt 0.5185 0.2740
vt 0.8796 0.2010
vt 0.8611 0.1827
vt 0.8796 0.1827
vt 0.3796 0.8413
vt 0.3611 0.8870
vt 0.3611 0.8413
vt 0.3009 0.5854
vt 0.9352 0.7991
vt 0.9537 0.7991
vt 0.2963 0.8423
vt 0.3194 0.9153
vt 0.2963 0.9153
vt 0.6453 0.6256
vt 0.6420 0.6037
vt 0.6453 0.6028
vt 0.7037 0.1676
vt 0.6296 0.2041
vt 0.4999 0.1795
vt 0.3194 0.9143
vt 0.3426 0.8413
vt 0.3426 0.9153
vt 0.6366 0.6758
vt 0.6345 0.6028
vt 0.6366 0.6028
vt 0.5114 0.9133
vt 0.5463 0.8402
vt 0.6395 0.6034
vt 0.6366 0.6458
vt 0.6366 0.6028
vt 0.4629 0.9497
vt 0.5092 0.8402
vt 0.5092 0.9497
vt 0.5185 0.3502
vt 0.6296 0.2041
vt 0.6296 0.3502
vt 0.4262 0.0000
vt 0.4262 0.1461
vt 0.1574 0.8036
vt 0.1574 0.9497
vt 0.1343 0.8036
vt 0.1111 0.9497
vt 0.1111 0.8036
vt 0.3241 0.4018
vt 0.3704 0.3653
vt 0.1852 0.2192
vt 0.0926 0.3653
vt 0.2407 0.3653
vt 0.2407 0.5114
vt 0.2407 0.5114
vt 0.2778 0.3653
vt 0.2778 0.5114
vt 0.8085 0.3502
vt 0.2963 0.8413
vt 0.2778 0.9509
vt 0.2778 0.8413
vt 0.6481 0.9269
vt 0.7592 0.8174
vt 0.7592 0.9269
vt 0.6040 0.8402
vt 0.5854 0.9498
vt 0.5854 0.8402
vt 0.5854 0.8402
vt 0.5669 0.9498
vt 0.5669 0.8402
vt 0.2407 0.5114
vt 0.3426 0.9326
vt 0.3426 0.8413
vt 0.3611 0.8413
vt 0.3611 0.9326
vt 0.2778 0.1096
vt 0.1621 0.9010
vt 0.1576 0.8456
vt 0.1664 0.8058
vt 0.1754 0.9541
vt 0.7159 0.2127
vt 0.4628 0.7772
vt 0.8796 0.9817
vt 0.9905 0.5480
vt 0.0000 0.0000
vt 0.0000 0.0000
vt 0.9722 0.0001
vt 0.2778 0.6586
vt 0.6909 0.3343
vt 0.7159 0.3612
vt 0.7870 0.6165
vt 0.4259 0.7772
vt 0.0000 0.0000
vt 0.0000 0.1826
vt 0.2407 0.6210
vt 0.8333 0.3653
vt 0.7407 0.5023
vt 0.6481 0.3653
vt 0.0000 0.0000
vt 0.6114 0.8037
vt 0.9537 0.7991
vt 0.6481 0.5023
vt 0.6482 0.7078
vt 0.7963 0.6028
vt 0.7222 0.0000
vt 0.6453 0.6028
vt 0.4629 0.4567
vt 0.4629 0.3653
vt 0.0000 0.6210
vt 0.0000 0.8036
vt 0.4629 0.9233
vt 0.9198 0.3502
vt 0.1852 0.8218
vt 0.8085 0.2041
vt 0.9727 0.2041
vt 0.9666 0.3512
vt 0.6113 0.8402
vt 0.2778 0.6039
vt 0.4213 0.8413
vt 0.4629 0.6037
vt 0.7222 0.0822
vt 0.6945 0.6347
vt 0.6420 0.6028
vt 0.9352 0.5982
vt 0.6114 0.6028
vt 0.7592 0.8174
vt 0.2778 0.7305
vt 0.4028 0.8778
vt 0.8796 0.9361
vt 0.0000 0.8036
vt 0.0741 0.6210
vt 0.0741 0.6438
vt 0.5185 0.1827
vt 0.6481 0.6347
vt 0.6481 0.6165
vt 0.8611 0.2010
vt 0.3796 0.8870
vt 0.3009 0.6037
vt 0.3194 0.8413
vt 0.6420 0.6265
vt 0.4259 0.1795
vt 0.3194 0.8413
vt 0.6345 0.6758
vt 0.5092 0.9132
vt 0.6395 0.6465
vt 0.4629 0.8402
vt 0.5185 0.2041
vt 0.3151 0.0000
vt 0.2778 0.3663
vt 0.3009 0.4018
vt 0.4259 0.6950
vt 0.4259 0.6037
vt 0.4629 0.6950
vt 0.4629 0.6037
vt 0.8085 0.2041
vt 0.1852 0.3653
vt 0.2037 0.3653
vt 0.2407 0.3653
vt 0.2963 0.9509
vt 0.6481 0.8174
vt 0.6040 0.9498
vt 0.5854 0.9498
vn 0.0000 0.0000 -1.0000
vn 1.0000 0.0000 0.0000
vn 0.0000 -1.0000 0.0000
vn 0.0000 1.0000 0.0000
vn 0.9864 -0.1644 0.0000
vn 0.0000 0.0000 1.0000
vn 0.0000 1.0000 0.0041
vn 1.0000 0.0031 0.0000
vn -0.9864 0.1644 0.0000
vn -1.0000 0.0000 0.0000
vn -0.9810 0.1635 -0.1048
vn 0.9864 0.1644 0.0000
vn 0.7071 0.0000 0.7071
vn -0.8480 0.0000 0.5300
vn 0.0000 0.3162 0.9487
vn 0.7022 -0.1170 0.7022
vn -0.9451 0.3269 0.0000
vn -1.0000 -0.0010 0.0000
vn -1.0000 -0.0094 0.0000
vn 0.9551 0.1325 0.2651
vn -0.9636 0.0000 -0.2674
vn 0.8197 0.2562 0.5123
vn 0.7133 0.0000 -0.7009
vn -0.6731 0.3307 0.6615
vn 0.0046 1.0000 0.0000
vn -0.9402 0.3252 -0.1011
vn -1.0000 -0.0094 -0.0004
vn 0.8351 0.1740 0.5219
vn -0.8197 0.2562 0.5123
vn -0.3369 -0.4211 0.8422
vn 0.0000 -0.7071 0.7071
usemtl Level_2
s off
f 51/1/1 5/2/1 2/3/1
f 6/4/2 3/5/2 5/6/2
f 5/7/3 90/8/3 2/9/3
f 51/10/4 4/11/4 6/12/4
f 9/13/1 31/14/1 13/15/1
f 19/16/5 98/17/5 11/18/5
f 12/19/6 7/20/6 11/21/6
f 13/22/3 7/23/3 9/24/3
f 24/25/7 12/26/7 25/27/7
f 26/28/6 16/29/6 22/30/6
f 27/31/8 26/32/8 33/33/8
f 17/34/2 29/35/2 18/36/2
f 13/37/5 19/16/5 11/18/5
f 32/38/9 20/39/9 29/40/9
f 22/41/10 21/42/10 14/43/10
f 14/44/3 21/45/3 9/24/3
f 16/46/6 21/47/6 23/48/6
f 32/38/9 17/49/9 31/50/9
f 25/51/11 30/52/11 32/38/11
f 33/33/8 15/53/8 28/54/8
f 24/55/12 28/54/12 8/56/12
f 10/57/12 33/33/12 24/55/12
f 10/58/4 25/27/4 31/59/4
f 4/60/13 90/61/13 3/5/13
f 92/62/3 34/63/3 2/9/3
f 34/63/3 39/64/3 2/9/3
f 40/65/4 145/66/4 63/67/4
f 92/62/3 142/68/3 34/63/3
f 54/69/6 42/70/6 52/71/6
f 59/72/1 81/73/1 39/74/1
f 52/75/10 34/76/10 41/77/10
f 79/78/4 141/79/4 69/80/4
f 51/10/4 58/81/4 1/82/4
f 53/83/1 66/84/1 1/85/1
f 39/86/2 74/87/2 51/88/2
f 48/89/6 52/71/6 41/90/6
f 35/91/6 54/69/6 48/89/6
f 44/92/6 50/93/6 54/69/6
f 36/94/10 76/95/10 50/96/10
f 51/97/6 89/98/6 58/99/6
f 44/100/10 76/95/10 36/94/10
f 50/96/10 76/95/10 42/101/10
f 49/102/2 78/103/2 45/104/2
f 48/105/10 76/95/10 35/106/10
f 61/107/1 73/108/1 59/72/1
f 41/77/10 76/95/10 48/105/10
f 57/109/6 84/110/6 60/111/6
f 43/112/4 55/113/4 64/114/4
f 88/115/4 79/78/4 86/116/4
f 104/117/2 109/118/2 74/87/2
f 73/108/1 104/119/1 80/120/1
f 85/121/6 105/122/6 84/110/6
f 71/123/10 103/124/10 76/95/10
f 102/125/4 137/126/4 136/127/4
f 87/128/2 120/129/2 75/130/2
f 76/95/10 118/131/10 68/132/10
f 77/133/6 102/134/6 70/135/6
f 75/130/2 106/136/2 88/137/2
f 86/138/10 101/139/10 107/140/10
f 66/141/2 113/142/2 67/143/2
f 86/116/4 79/78/4 69/80/4
f 81/144/2 104/117/2 74/87/2
f 56/145/14 71/123/14 38/146/14
f 1/147/2 67/143/2 46/148/2
f 35/106/10 76/95/10 44/100/10
f 58/149/10 85/150/10 57/151/10
f 63/152/15 70/135/15 40/153/15
f 45/154/15 77/133/15 63/152/15
f 55/155/1 86/156/1 64/157/1
f 38/146/10 71/123/10 41/77/10
f 64/158/10 82/159/10 53/160/10
f 67/161/1 148/162/1 46/163/1
f 60/164/2 88/137/2 55/165/2
f 42/101/10 76/95/10 61/166/10
f 40/153/6 69/167/6 62/168/6
f 92/169/10 95/170/10 1/171/10
f 4/60/16 94/172/16 91/173/16
f 90/174/6 96/175/6 92/176/6
f 1/177/1 93/178/1 4/179/1
f 91/180/6 96/175/6 90/174/6
f 97/181/6 19/182/6 100/183/6
f 30/52/17 99/184/17 20/39/17
f 11/185/18 97/186/18 12/187/18
f 12/187/19 100/188/19 30/52/19
f 108/189/6 114/190/6 103/191/6
f 73/108/1 117/192/1 104/119/1
f 102/134/6 116/193/6 101/194/6
f 106/136/2 124/195/2 108/196/2
f 80/120/1 104/119/1 81/73/1
f 86/156/1 122/197/1 83/198/1
f 78/199/6 102/134/6 77/133/6
f 79/200/3 130/201/3 71/202/3
f 89/203/10 123/204/10 85/150/10
f 67/143/2 113/142/2 72/205/2
f 82/159/10 112/206/10 65/207/10
f 83/208/10 112/206/10 82/159/10
f 84/110/6 120/209/6 87/210/6
f 88/137/2 108/196/2 79/211/2
f 72/205/2 113/142/2 78/103/2
f 65/212/1 115/213/1 66/84/1
f 109/214/6 125/215/6 110/216/6
f 89/203/10 125/217/10 123/204/10
f 74/218/3 110/219/3 89/220/3
f 122/221/4 113/222/4 115/223/4
f 123/224/4 117/225/4 120/226/4
f 120/226/4 118/227/4 121/228/4
f 120/226/4 117/225/4 118/227/4
f 111/229/4 121/228/4 124/230/4
f 122/221/4 116/231/4 113/222/4
f 123/224/4 104/232/4 117/225/4
f 103/124/10 121/233/10 76/95/10
f 76/95/10 121/233/10 118/131/10
f 127/234/10 129/235/10 128/236/10
f 101/237/3 128/238/3 107/239/3
f 116/193/6 127/240/6 101/194/6
f 129/241/4 126/242/4 116/231/4
f 130/243/6 133/244/6 132/245/6
f 103/246/4 133/247/4 108/248/4
f 79/211/20 133/249/20 131/250/20
f 71/123/21 132/251/21 103/124/21
f 135/252/22 137/253/22 134/254/22
f 102/255/23 135/256/23 70/257/23
f 69/258/24 137/259/24 101/139/24
f 69/260/3 135/261/3 134/262/3
f 139/263/6 140/264/6 138/265/6
f 69/266/2 139/267/2 62/268/2
f 56/145/10 140/269/10 79/270/10
f 62/271/3 139/272/3 47/273/3
f 47/273/3 138/274/3 56/275/3
f 62/168/6 47/276/6 142/277/6
f 37/278/3 146/279/3 142/68/3
f 45/104/2 143/280/2 37/281/2
f 142/282/10 145/283/10 40/284/10
f 63/67/4 145/66/4 45/285/4
f 148/286/2 149/287/2 147/288/2
f 49/289/6 149/290/6 72/291/6
f 46/292/3 147/293/3 49/294/3
f 72/295/4 150/296/4 67/297/4
f 51/1/1 6/298/1 5/2/1
f 6/4/2 4/60/2 3/5/2
f 93/299/4 95/300/4 96/301/4
f 96/301/4 94/302/4 93/299/4
f 5/7/3 3/303/3 90/8/3
f 51/10/4 1/82/4 4/11/4
f 27/304/6 10/305/6 9/306/6
f 9/306/6 16/307/6 27/304/6
f 9/13/1 10/308/1 31/14/1
f 12/19/6 8/309/6 7/20/6
f 13/22/3 11/310/3 7/23/3
f 24/25/25 8/311/25 12/26/25
f 22/30/6 15/312/6 26/28/6
f 16/29/6 23/313/6 22/30/6
f 27/31/8 16/314/8 26/32/8
f 7/23/3 14/44/3 9/24/3
f 19/16/2 18/36/2 29/35/2
f 29/35/2 20/315/2 19/16/2
f 13/37/5 18/36/5 19/16/5
f 32/38/26 30/52/26 20/39/26
f 18/316/1 13/15/1 31/14/1
f 31/14/1 17/317/1 18/316/1
f 22/41/10 23/318/10 21/42/10
f 16/46/1 9/319/1 21/47/1
f 32/38/9 29/40/9 17/49/9
f 25/51/9 32/38/9 31/50/9
f 25/51/27 12/187/27 30/52/27
f 33/33/8 26/32/8 15/53/8
f 24/55/12 33/33/12 28/54/12
f 10/57/12 27/31/12 33/33/12
f 10/58/4 24/25/4 25/27/4
f 4/60/13 91/173/13 90/61/13
f 90/8/3 92/62/3 2/9/3
f 64/157/1 86/156/1 83/198/1
f 34/63/3 61/320/3 39/64/3
f 38/321/3 34/63/3 142/68/3
f 92/62/3 37/278/3 142/68/3
f 37/281/2 92/322/2 49/102/2
f 46/148/2 49/102/2 92/322/2
f 92/322/2 1/147/2 46/148/2
f 49/102/2 45/104/2 37/281/2
f 39/74/1 61/107/1 59/72/1
f 54/69/6 50/93/6 42/70/6
f 2/323/2 39/86/2 51/88/2
f 59/72/1 80/120/1 81/73/1
f 38/146/10 41/77/10 34/76/10
f 52/75/10 42/101/10 34/76/10
f 42/101/10 61/166/10 34/76/10
f 53/324/4 58/81/4 43/112/4
f 1/82/4 58/81/4 53/324/4
f 60/325/4 55/113/4 43/112/4
f 53/83/1 65/212/1 66/84/1
f 39/86/2 81/144/2 74/87/2
f 48/89/6 54/69/6 52/71/6
f 35/91/6 44/92/6 54/69/6
f 44/92/6 36/326/6 50/93/6
f 51/97/6 74/327/6 89/98/6
f 49/102/2 72/205/2 78/103/2
f 59/72/1 73/108/1 80/120/1
f 79/78/4 140/328/4 141/79/4
f 53/324/4 43/112/4 64/114/4
f 41/77/10 71/123/10 76/95/10
f 58/81/4 60/325/4 43/112/4
f 60/325/4 58/81/4 57/329/4
f 55/155/1 88/330/1 86/156/1
f 104/117/2 119/331/2 109/118/2
f 85/121/6 123/332/6 105/122/6
f 102/125/4 101/333/4 137/126/4
f 88/137/2 106/136/2 108/196/2
f 75/130/2 120/129/2 106/136/2
f 68/334/1 118/335/1 73/108/1
f 86/138/10 69/258/10 101/139/10
f 66/141/2 115/336/2 113/142/2
f 56/145/14 79/270/14 71/123/14
f 57/109/6 85/121/6 84/110/6
f 1/147/2 66/141/2 67/143/2
f 60/111/6 84/110/6 87/210/6
f 58/149/10 89/203/10 85/150/10
f 61/107/1 68/334/1 73/108/1
f 53/160/10 82/159/10 65/207/10
f 63/152/15 77/133/15 70/135/15
f 45/154/15 78/199/15 77/133/15
f 64/158/10 83/208/10 82/159/10
f 67/161/1 150/337/1 148/162/1
f 61/166/10 76/95/10 68/132/10
f 60/164/2 75/130/2 88/137/2
f 40/153/28 70/135/28 69/167/28
f 60/164/2 87/128/2 75/130/2
f 92/169/10 96/338/10 95/170/10
f 4/60/2 93/339/2 94/172/2
f 1/177/1 95/340/1 93/178/1
f 91/180/6 94/341/6 96/175/6
f 97/181/6 98/342/6 19/182/6
f 19/182/6 99/343/6 100/183/6
f 30/52/17 100/188/17 99/184/17
f 11/185/18 98/344/18 97/186/18
f 12/187/19 97/186/19 100/188/19
f 20/315/2 99/345/2 19/16/2
f 108/189/6 124/346/6 114/190/6
f 102/134/6 113/347/6 116/193/6
f 105/122/6 123/332/6 120/209/6
f 106/136/2 120/129/2 111/348/2
f 106/136/2 111/348/2 124/195/2
f 86/156/1 107/349/1 122/197/1
f 79/200/3 131/350/3 130/201/3
f 83/208/10 122/351/10 112/206/10
f 84/110/6 105/122/6 120/209/6
f 65/212/1 112/352/1 115/213/1
f 78/199/6 113/347/6 102/134/6
f 109/214/6 119/353/6 125/215/6
f 89/203/10 110/354/10 125/217/10
f 74/218/3 109/355/3 110/219/3
f 112/356/4 122/221/4 115/223/4
f 111/229/4 120/226/4 121/228/4
f 124/230/4 121/228/4 114/357/4
f 123/224/4 119/358/4 104/232/4
f 122/221/4 129/241/4 116/231/4
f 123/224/4 125/359/4 119/358/4
f 73/108/1 118/335/1 117/192/1
f 103/124/10 114/360/10 121/233/10
f 107/349/1 128/361/1 129/362/1
f 107/349/1 129/362/1 122/197/1
f 127/234/10 126/363/10 129/235/10
f 101/237/3 127/364/3 128/238/3
f 116/193/6 126/365/6 127/240/6
f 130/243/29 131/366/29 133/244/29
f 103/246/4 132/367/4 133/247/4
f 79/211/20 108/196/20 133/249/20
f 71/123/21 130/368/21 132/251/21
f 135/252/6 136/369/6 137/253/6
f 102/255/23 136/370/23 135/256/23
f 69/258/24 134/371/24 137/259/24
f 69/260/3 70/372/3 135/261/3
f 139/263/6 141/373/6 140/264/6
f 69/266/2 141/374/2 139/267/2
f 56/145/10 138/375/10 140/269/10
f 47/273/3 139/272/3 138/274/3
f 38/376/30 142/277/30 47/276/30
f 40/153/6 62/168/6 142/277/6
f 47/276/31 56/377/31 38/376/31
f 146/378/6 143/379/6 145/380/6
f 144/381/6 145/380/6 143/379/6
f 45/285/4 145/66/4 144/382/4
f 37/278/3 143/383/3 146/279/3
f 45/104/2 144/384/2 143/280/2
f 142/282/10 146/385/10 145/283/10
f 148/286/2 150/386/2 149/287/2
f 49/289/6 147/387/6 149/290/6
f 46/292/3 148/388/3 147/293/3
f 72/295/4 149/389/4 150/296/4
