{
    "asset" : {
        "generator" : "Khronos Blender glTF 2.0 I/O",
        "version" : "2.0"
    },
    "scene" : 0,
    "scenes" : [
        {
            "name" : "Scene",
            "nodes" : [
                0
            ]
        }
    ],
    "nodes" : [
        {
            "mesh" : 0,
            "name" : "Cylinder",
            "translation" : [
                0,
                1.5053958892822266,
                0
            ]
        }
    ],
    "materials" : [
        {
            "name" : "Base_color",
            "pbrMetallicRoughness" : {
                "baseColorFactor" : [
                    0.07658004760742188,
                    0.018557878211140633,
                    0,
                    1
                ],
                "metallicFactor" : 0,
                "roughnessFactor" : 0.5
            }
        },
        {
            "name" : "Lighter_color",
            "pbrMetallicRoughness" : {
                "baseColorFactor" : [
                    0.2529431879520416,
                    0.04347676783800125,
                    0.0013941313372924924,
                    1
                ],
                "metallicFactor" : 0,
                "roughnessFactor" : 0.5
            }
        },
        {
            "name" : "Silver_rims",
            "pbrMetallicRoughness" : {
                "baseColorFactor" : [
                    0.195988267660141,
                    0.195988267660141,
                    0.195988267660141,
                    1
                ],
                "metallicFactor" : 0.7666666507720947,
                "roughnessFactor" : 0.675000011920929
            }
        },
        {
            "name" : "Cork",
            "pbrMetallicRoughness" : {
                "baseColorFactor" : [
                    0.10751589387655258,
                    0.11832892149686813,
                    0.003456776961684227,
                    1
                ],
                "metallicFactor" : 0,
                "roughnessFactor" : 0.5
            }
        }
    ],
    "meshes" : [
        {
            "name" : "Cylinder",
            "primitives" : [
                {
                    "attributes" : {
                        "POSITION" : 0,
                        "NORMAL" : 1,
                        "TEXCOORD_0" : 2
                    },
                    "indices" : 3,
                    "material" : 0
                },
                {
                    "attributes" : {
                        "POSITION" : 4,
                        "NORMAL" : 5,
                        "TEXCOORD_0" : 6
                    },
                    "indices" : 7,
                    "material" : 1
                },
                {
                    "attributes" : {
                        "POSITION" : 8,
                        "NORMAL" : 9,
                        "TEXCOORD_0" : 10
                    },
                    "indices" : 11,
                    "material" : 2
                },
                {
                    "attributes" : {
                        "POSITION" : 12,
                        "NORMAL" : 13,
                        "TEXCOORD_0" : 14
                    },
                    "indices" : 15,
                    "material" : 3
                }
            ]
        }
    ],
    "accessors" : [
        {
            "bufferView" : 0,
            "componentType" : 5126,
            "count" : 464,
            "max" : [
                1.2773724794387817,
                1.5,
                1.2773724794387817
            ],
            "min" : [
                -1.2773724794387817,
                -1.5,
                -1.2773724794387817
            ],
            "type" : "VEC3"
        },
        {
            "bufferView" : 1,
            "componentType" : 5126,
            "count" : 464,
            "type" : "VEC3"
        },
        {
            "bufferView" : 2,
            "componentType" : 5126,
            "count" : 464,
            "type" : "VEC2"
        },
        {
            "bufferView" : 3,
            "componentType" : 5123,
            "count" : 768,
            "type" : "SCALAR"
        },
        {
            "bufferView" : 4,
            "componentType" : 5126,
            "count" : 42,
            "max" : [
                0.9490204453468323,
                1.4500000476837158,
                0.9490204453468323
            ],
            "min" : [
                -0.9490204453468323,
                -1.4500000476837158,
                -0.9490204453468323
            ],
            "type" : "VEC3"
        },
        {
            "bufferView" : 5,
            "componentType" : 5126,
            "count" : 42,
            "type" : "VEC3"
        },
        {
            "bufferView" : 6,
            "componentType" : 5126,
            "count" : 42,
            "type" : "VEC2"
        },
        {
            "bufferView" : 7,
            "componentType" : 5123,
            "count" : 84,
            "type" : "SCALAR"
        },
        {
            "bufferView" : 8,
            "componentType" : 5126,
            "count" : 576,
            "max" : [
                1.297703742980957,
                0.9787794351577759,
                1.297703742980957
            ],
            "min" : [
                -1.297703742980957,
                -0.9712123274803162,
                -1.297703742980957
            ],
            "type" : "VEC3"
        },
        {
            "bufferView" : 9,
            "componentType" : 5126,
            "count" : 576,
            "type" : "VEC3"
        },
        {
            "bufferView" : 10,
            "componentType" : 5126,
            "count" : 576,
            "type" : "VEC2"
        },
        {
            "bufferView" : 11,
            "componentType" : 5123,
            "count" : 864,
            "type" : "SCALAR"
        },
        {
            "bufferView" : 12,
            "componentType" : 5126,
            "count" : 100,
            "max" : [
                0.06437196582555771,
                1.4878368377685547,
                -0.6695899367332458
            ],
            "min" : [
                -0.06437195837497711,
                1.4498815536499023,
                -0.7969880700111389
            ],
            "type" : "VEC3"
        },
        {
            "bufferView" : 13,
            "componentType" : 5126,
            "count" : 100,
            "type" : "VEC3"
        },
        {
            "bufferView" : 14,
            "componentType" : 5126,
            "count" : 100,
            "type" : "VEC2"
        },
        {
            "bufferView" : 15,
            "componentType" : 5123,
            "count" : 174,
            "type" : "SCALAR"
        }
    ],
    "bufferViews" : [
        {
            "buffer" : 0,
            "byteLength" : 5568,
            "byteOffset" : 0
        },
        {
            "buffer" : 0,
            "byteLength" : 5568,
            "byteOffset" : 5568
        },
        {
            "buffer" : 0,
            "byteLength" : 3712,
            "byteOffset" : 11136
        },
        {
            "buffer" : 0,
            "byteLength" : 1536,
            "byteOffset" : 14848
        },
        {
            "buffer" : 0,
            "byteLength" : 504,
            "byteOffset" : 16384
        },
        {
            "buffer" : 0,
            "byteLength" : 504,
            "byteOffset" : 16888
        },
        {
            "buffer" : 0,
            "byteLength" : 336,
            "byteOffset" : 17392
        },
        {
            "buffer" : 0,
            "byteLength" : 168,
            "byteOffset" : 17728
        },
        {
            "buffer" : 0,
            "byteLength" : 6912,
            "byteOffset" : 17896
        },
        {
            "buffer" : 0,
            "byteLength" : 6912,
            "byteOffset" : 24808
        },
        {
            "buffer" : 0,
            "byteLength" : 4608,
            "byteOffset" : 31720
        },
        {
            "buffer" : 0,
            "byteLength" : 1728,
            "byteOffset" : 36328
        },
        {
            "buffer" : 0,
            "byteLength" : 1200,
            "byteOffset" : 38056
        },
        {
            "buffer" : 0,
            "byteLength" : 1200,
            "byteOffset" : 39256
        },
        {
            "buffer" : 0,
            "byteLength" : 800,
            "byteOffset" : 40456
        },
        {
            "buffer" : 0,
            "byteLength" : 348,
            "byteOffset" : 41256
        }
    ],
    "buffers" : [
        {
            "byteLength" : 41604,
            "uri" : "data:application/octet-stream;base64,"
        }
    ]
}
