# Blender v2.78 (sub 0) OBJ File: 'assets.blend'
# www.blender.org
mtllib chair.mtl
o Plane.003
v -0.700000 0.003463 0.700000
v -0.700000 1.562372 0.700000
v -0.700000 0.003463 -0.700000
v 0.700000 0.003463 0.700000
v 0.700000 1.562372 0.700000
v 0.700000 0.003463 -0.700000
v 0.700000 1.562372 -0.700000
v -0.700000 1.562372 0.525000
v -0.382812 1.562372 -0.700000
v 0.612500 1.562372 0.700000
v -0.700000 1.562372 -0.700000
v -0.021875 1.562372 -0.700000
v 0.306250 1.562372 -0.700000
v 0.700000 1.562372 -0.437500
v -0.700000 1.562372 -0.437500
v -0.612500 1.562372 0.700000
v 0.700000 1.562372 0.525000
v -0.612500 1.562372 0.525000
v 0.612500 1.562372 0.525000
v -0.306250 1.562372 -0.437500
v 0.306250 1.562372 -0.437500
v -0.021875 1.562372 -0.437500
v -0.700000 2.262372 0.700000
v 0.612500 2.262372 0.700000
v 0.700000 2.262372 0.700000
v -0.700000 3.077644 -0.700000
v 0.262500 3.461446 -0.700000
v 0.000000 3.461445 -0.612500
v -0.350000 3.316049 -0.700000
v 0.350000 3.316049 -0.700000
v 0.700000 3.077644 -0.437500
v 0.700000 3.077644 -0.700000
v -0.525000 3.077644 -0.700000
v -0.262500 3.461446 -0.700000
v -0.700000 3.077644 -0.437500
v 0.700000 2.262372 0.322137
v -0.350000 3.316049 -0.437500
v 0.350000 3.316049 -0.437500
v 0.262500 3.461446 -0.437500
v 0.043750 3.461445 -0.525000
v -0.525000 3.077644 -0.437500
v -0.437500 3.316049 -0.700000
v -0.612500 2.262372 0.322137
v -0.700000 2.262372 0.322137
v -0.262500 3.461446 -0.437500
v -0.087500 3.461445 -0.568750
v 0.525000 3.077644 -0.700000
v 0.437500 3.316049 -0.700000
v -0.612500 2.262372 0.700000
v 0.612500 2.262372 0.322137
v 0.525000 3.077644 -0.437500
v 0.437500 3.316049 -0.437500
v -0.437500 3.316049 -0.437500
v -0.700000 1.912372 0.525000
v 0.700000 1.912372 0.525000
v -0.612500 1.912372 0.525000
v 0.612500 1.999872 0.700000
v 0.612500 1.912372 0.525000
v -0.700000 2.087372 0.322137
v 0.700000 2.087372 0.322137
v 0.612500 2.087372 0.322137
v -0.612500 2.087372 0.322137
v 0.612500 2.087372 -0.439642
v 0.612500 2.262372 -0.439642
v 0.700000 2.087372 -0.439642
v 0.700000 2.262372 -0.439642
v -0.700000 2.087372 -0.439642
v -0.700000 2.262372 -0.439642
v -0.612500 2.262372 -0.439642
v -0.612500 2.087372 -0.439642
v 0.700000 1.403463 -0.087500
v 0.700000 1.403463 -0.350000
v -0.700000 1.403463 -0.350000
v 0.350000 1.403463 -0.700000
v 0.700000 1.403463 0.350000
v -0.350000 1.403463 0.700000
v -0.437500 1.403463 0.087500
v 0.350000 1.403463 -0.350000
v -0.466667 1.403463 -0.350000
v -0.466667 1.403463 0.350000
v 0.350000 1.403463 0.350000
v -0.700000 0.003463 0.525000
v -0.525000 0.003463 -0.700000
v 0.700000 0.003463 -0.525000
v 0.525000 0.003463 0.700000
v -0.700000 1.403463 -0.087500
v 0.087500 1.403463 -0.700000
v -0.087500 1.403463 0.700000
v 0.087500 1.403463 0.000000
v -0.700000 1.403463 0.350000
v -0.350000 1.403463 -0.700000
v 0.350000 1.403463 0.700000
v -0.700000 0.003463 -0.525000
v 0.525000 0.003463 -0.700000
v 0.700000 0.003463 0.525000
v -0.525000 0.003463 0.700000
v -0.087500 1.403463 0.218750
v 0.350000 1.403463 -0.525000
v 0.525000 1.403463 -0.350000
v -0.350000 1.403463 0.466667
v 0.350000 1.403463 0.525000
v 0.218750 1.403463 0.262500
v 0.525000 1.403463 0.350000
v 0.087500 1.403463 0.525000
v -0.525000 0.003463 0.525000
v -0.350000 1.403463 -0.466667
v -0.525000 0.003463 -0.525000
v 0.525000 0.003463 -0.525000
v 0.087500 1.403463 -0.393750
v 0.481250 1.403463 -0.021875
v -0.175000 1.403463 -0.087500
v 0.525000 0.003463 0.525000
vt 0.4854 0.5504
vt 0.5915 0.5224
vt 0.7281 0.5504
vt 0.4854 0.3362
vt 0.3792 0.3643
vt 0.2427 0.3362
vt 0.0000 0.6098
vt 0.1365 0.5819
vt 0.2427 0.6098
vt 0.7281 0.0000
vt 0.6219 0.0281
vt 0.4854 0.0000
vt 0.6219 0.8447
vt 0.5915 0.8757
vt 0.5915 0.8447
vt 0.7281 0.7982
vt 0.4854 0.5504
vt 0.7281 0.5504
vt 0.3109 0.3362
vt 0.2730 0.0679
vt 0.2882 0.0257
vt 0.8487 0.2018
vt 0.7281 0.2018
vt 0.8487 0.1708
vt 0.8639 0.3721
vt 0.8790 0.2482
vt 0.8790 0.3721
vt 0.0000 0.3362
vt 0.0303 0.0679
vt 0.0550 0.3362
vt 0.7581 0.4704
vt 0.7281 0.4704
vt 0.7281 0.4035
vt 0.9090 0.9185
vt 0.9545 0.6518
vt 0.9545 0.9185
vt 0.8487 0.4035
vt 0.7884 0.3726
vt 0.8487 0.3726
vt 0.7582 0.1349
vt 0.7884 0.1708
vt 0.3185 0.0000
vt 0.3678 0.3362
vt 0.7228 0.7982
vt 0.7076 0.8602
vt 0.7076 0.7982
vt 0.4171 0.3362
vt 0.4550 0.0679
vt 0.4854 0.3362
vt 0.4095 0.0000
vt 0.3034 0.0257
vt 0.7581 0.6722
vt 0.7281 0.6722
vt 0.7281 0.6053
vt 0.1176 0.3362
vt 0.1668 0.0000
vt 0.1744 0.3362
vt 0.0455 0.0257
vt 0.6674 0.8447
vt 0.6522 0.9067
vt 0.6522 0.8447
vt 0.2124 0.0679
vt 0.2427 0.3362
vt 0.9549 0.0000
vt 0.9549 0.2659
vt 0.9094 0.0000
vt 0.0607 0.0257
vt 0.0758 0.0000
vt 0.8487 0.2482
vt 0.8639 0.2482
vt 0.8639 0.2947
vt 0.8483 0.6363
vt 0.8483 0.6053
vt 0.5005 0.8447
vt 0.4854 0.7982
vt 0.5081 0.8292
vt 0.7854 0.8071
vt 0.7584 0.8536
vt 0.7584 0.8071
vt 0.7076 0.7982
vt 0.7076 0.8447
vt 0.6773 0.7982
vt 0.6977 0.8447
vt 0.6826 0.8912
vt 0.6826 0.8447
vt 0.5460 1.0000
vt 0.5612 0.9331
vt 0.5612 1.0000
vt 0.6345 0.7982
vt 0.5915 0.8447
vt 0.5915 0.7982
vt 0.7584 0.8071
vt 0.7584 0.8536
vt 0.7281 0.8071
vt 0.6674 0.8447
vt 0.6826 0.8447
vt 0.6826 0.8912
vt 0.7854 0.8536
vt 0.8121 0.8071
vt 0.8121 0.8536
vt 0.5460 0.7982
vt 0.5309 0.8651
vt 0.5309 0.7982
vt 0.5309 0.8912
vt 0.5157 0.8524
vt 0.5309 0.7982
vt 0.4854 0.8912
vt 0.6345 0.7982
vt 0.6773 0.7982
vt 0.6773 0.8447
vt 0.8639 0.3721
vt 0.8487 0.4031
vt 0.8487 0.3721
vt 0.5612 0.9690
vt 0.5764 0.9331
vt 0.5764 0.9690
vt 0.5764 0.9690
vt 0.5915 0.9331
vt 0.5915 0.9690
vt 0.5460 0.9331
vt 0.5612 0.7982
vt 0.7733 0.4035
vt 0.7281 0.4035
vt 0.7281 0.3366
vt 0.7582 0.2018
vt 0.7582 0.3366
vt 0.2124 0.8528
vt 0.1972 0.8838
vt 0.1972 0.8528
vt 0.7281 0.6053
vt 0.7281 0.1349
vt 0.7582 0.0000
vt 0.5460 0.8651
vt 0.5309 1.0000
vt 0.5612 0.9331
vt 0.5764 0.7982
vt 0.5764 0.9331
vt 0.5915 0.7982
vt 0.7281 0.8071
vt 0.4550 0.7206
vt 0.4854 0.7516
vt 0.4530 0.7940
vt 0.3602 0.6509
vt 0.3640 0.7206
vt 0.2958 0.7206
vt 0.8483 0.6518
vt 0.8787 0.4035
vt 0.8787 0.6518
vt 0.9090 0.8996
vt 0.8888 0.9000
vt 0.8787 0.6518
vt 1.0000 0.6451
vt 0.9697 0.4035
vt 1.0000 0.4035
vt 0.4550 0.6742
vt 0.4854 0.6742
vt 0.4247 0.6122
vt 0.4247 0.6432
vt 0.4247 0.6742
vt 0.4095 0.6974
vt 0.4019 0.7516
vt 0.4247 0.8188
vt 0.3792 0.8136
vt 0.3489 0.7671
vt 0.4247 0.8601
vt 0.3489 0.8601
vt 0.8424 0.8381
vt 0.8121 0.8691
vt 0.8121 0.8381
vt 0.8689 0.2482
vt 0.9094 0.0000
vt 0.9094 0.2482
vt 0.8487 0.2479
vt 0.8790 0.0000
vt 0.2427 0.7206
vt 0.2750 0.7940
vt 0.2427 0.7981
vt 0.8483 0.9000
vt 0.8483 0.6518
vt 0.6522 0.8447
vt 0.6219 0.8757
vt 0.6219 0.8447
vt 0.9852 0.2415
vt 0.9549 0.0000
vt 0.9852 0.0000
vt 0.3034 0.8188
vt 0.3034 0.8601
vt 0.9090 0.4039
vt 0.9090 0.4035
vt 0.9545 0.6518
vt 0.9848 0.8948
vt 0.9545 0.8948
vt 0.8424 0.8071
vt 0.8121 0.8381
vt 0.8121 0.8071
vt 0.2427 0.6742
vt 0.3034 0.6432
vt 0.3034 0.6742
vt 0.3034 0.6122
vt 0.1972 0.6098
vt 0.2275 0.8528
vt 0.1972 0.8528
vt 0.9393 0.6517
vt 0.9697 0.6514
vt 0.9697 0.6517
vt 0.9090 0.6517
vt 0.9393 0.4035
vt 0.6977 0.2760
vt 0.7281 0.2760
vt 0.6674 0.5224
vt 0.4854 0.2760
vt 0.5460 0.5224
vt 0.5157 0.2760
vt 0.2730 0.6122
vt 0.2427 0.6122
vt 0.3034 0.3643
vt 0.4854 0.6122
vt 0.4247 0.3643
vt 0.4550 0.6122
vt 0.2124 0.3362
vt 0.2427 0.3362
vt 0.1820 0.5819
vt 0.0000 0.3362
vt 0.0607 0.5819
vt 0.0303 0.3362
vt 0.5157 0.2760
vt 0.4854 0.2760
vt 0.5460 0.0281
vt 0.6674 0.0281
vt 0.6977 0.2760
vt 0.6219 0.8757
vt 0.4854 0.7982
vt 0.2427 0.3362
vt 0.8639 0.2482
vt 0.8483 0.4035
vt 0.7882 0.4345
vt 0.8483 0.4345
vt 0.9090 0.6518
vt 0.4854 0.0679
vt 0.4247 0.0257
vt 0.2427 0.0679
vt 0.4399 0.0257
vt 0.7228 0.8602
vt 0.1820 0.0257
vt 0.1972 0.0257
vt 0.7882 0.6363
vt 0.0000 0.0679
vt 0.6674 0.9067
vt 0.2427 0.0679
vt 0.9094 0.2659
vt 0.8639 0.3721
vt 0.8487 0.3721
vt 0.6977 0.8912
vt 0.7854 0.8536
vt 0.6345 0.8447
vt 0.7281 0.8536
vt 0.6674 0.8912
vt 0.7854 0.8071
vt 0.6345 0.8447
vt 0.6773 0.8447
vt 0.8639 0.4031
vt 0.5460 0.7982
vt 0.7281 0.2018
vt 0.2124 0.8838
vt 0.7581 0.6053
vt 0.7281 0.0000
vt 0.5460 1.0000
vt 0.5612 0.7982
vt 0.5764 0.7982
vt 0.7581 0.8071
vt 0.2730 0.6742
vt 0.8483 0.4035
vt 0.9697 0.6451
vt 0.3489 0.6122
vt 0.8424 0.8691
vt 0.6522 0.8757
vt 0.9549 0.2415
vt 0.9848 0.6518
vt 0.8424 0.8381
vt 0.4854 0.7981
vt 0.2275 0.6098
vt 0.9090 0.4035
vn -1.0000 0.0000 0.0000
vn 0.0000 0.0000 -1.0000
vn 1.0000 0.0000 0.0000
vn 0.0000 0.0000 1.0000
vn 0.0000 -1.0000 0.0000
vn 0.0000 1.0000 0.0000
vn 0.8568 0.5156 0.0000
vn 0.9388 0.3445 0.0000
vn -0.8568 0.5156 0.0000
vn -0.9388 0.3445 0.0000
vn 0.0000 -0.7572 -0.6532
vn 0.0000 -0.1240 0.9923
vn 0.7022 -0.1170 0.7022
vn 0.9923 -0.1240 0.0000
vn 0.0000 -0.1240 -0.9923
vn 0.7022 -0.1170 -0.7022
vn -0.9923 -0.1240 0.0000
vn -0.7044 -0.0880 0.7044
vn -0.7044 -0.0880 -0.7044
usemtl Chair
s off
f 11/1/1 86/2/1 2/3/1
f 7/4/2 87/5/2 11/6/2
f 5/7/3 71/8/3 7/9/3
f 2/10/4 88/11/4 5/12/4
f 95/13/5 85/14/5 112/15/5
f 11/16/6 5/17/6 7/18/6
f 21/19/4 51/20/4 52/21/4
f 2/22/1 23/23/1 8/24/1
f 16/25/4 23/26/4 2/27/4
f 11/28/2 33/29/2 9/30/2
f 62/31/3 43/32/3 49/33/3
f 15/34/1 26/35/1 11/36/1
f 10/37/1 58/38/1 19/39/1
f 23/23/1 59/40/1 54/41/1
f 21/19/4 39/42/4 22/43/4
f 19/44/2 55/45/2 17/46/2
f 20/47/4 41/48/4 15/49/4
f 22/43/4 45/50/4 20/47/4
f 21/19/4 38/51/4 39/42/4
f 60/52/3 36/53/3 25/54/3
f 12/55/2 27/56/2 13/57/2
f 9/30/2 33/29/2 42/58/2
f 8/59/2 56/60/2 18/61/2
f 13/57/2 47/62/2 7/63/2
f 7/64/3 32/65/3 14/66/3
f 9/30/2 29/67/2 34/68/2
f 9/30/2 34/68/2 12/55/2
f 25/69/4 24/70/4 57/71/4
f 17/72/3 25/54/3 5/73/3
f 28/74/6 34/75/6 46/76/6
f 38/77/7 27/78/7 39/79/7
f 41/80/6 33/81/6 35/82/6
f 37/83/6 42/84/6 53/85/6
f 25/86/6 50/87/6 24/88/6
f 51/89/8 48/90/8 52/91/8
f 31/92/6 32/93/6 51/94/6
f 48/95/6 30/96/6 38/97/6
f 45/98/9 29/99/9 37/100/9
f 49/101/6 44/102/6 23/103/6
f 39/104/6 40/105/6 45/106/6
f 39/104/6 27/107/6 40/105/6
f 42/108/10 33/109/10 41/110/10
f 46/76/6 34/75/6 45/106/6
f 63/111/2 66/112/2 65/113/2
f 54/114/11 62/115/11 56/116/11
f 58/117/11 60/118/11 55/119/11
f 36/120/6 64/121/6 50/87/6
f 57/122/1 24/123/1 58/38/1
f 50/124/1 63/125/1 61/126/1
f 58/38/1 50/124/1 61/126/1
f 67/127/2 69/128/2 70/129/2
f 62/31/3 69/130/3 43/32/3
f 44/131/1 67/132/1 59/40/1
f 43/133/6 68/134/6 44/102/6
f 59/135/5 70/136/5 62/115/5
f 61/137/5 65/138/5 60/118/5
f 60/52/3 66/139/3 36/53/3
f 104/140/5 88/141/5 100/142/5
f 110/143/5 89/144/5 109/145/5
f 84/146/12 99/147/12 108/148/12
f 106/149/13 79/150/13 107/151/13
f 100/152/14 96/153/14 105/154/14
f 101/155/5 92/156/5 104/140/5
f 75/157/5 103/158/5 110/143/5
f 110/143/5 81/159/5 102/160/5
f 110/143/5 102/160/5 89/144/5
f 102/160/5 104/140/5 97/161/5
f 81/159/5 104/140/5 102/160/5
f 97/161/5 80/162/5 77/163/5
f 89/144/5 97/161/5 111/164/5
f 77/163/5 90/165/5 86/166/5
f 105/167/5 1/168/5 82/169/5
f 80/170/15 82/171/15 90/172/15
f 80/170/16 100/173/16 105/174/16
f 87/175/5 106/176/5 91/177/5
f 107/151/12 73/178/12 93/179/12
f 83/180/5 93/181/5 3/182/5
f 91/183/14 107/184/14 83/185/14
f 79/186/5 86/166/5 73/187/5
f 98/188/5 99/147/5 78/189/5
f 94/190/17 98/191/17 74/192/17
f 6/193/5 108/194/5 94/195/5
f 74/196/5 109/145/5 87/175/5
f 99/197/5 110/143/5 78/198/5
f 72/199/5 110/143/5 99/197/5
f 111/164/5 77/163/5 79/186/5
f 109/145/5 111/164/5 106/176/5
f 112/200/17 92/201/17 101/202/17
f 103/203/5 101/204/5 81/205/5
f 75/206/15 112/207/15 103/203/15
f 82/208/1 1/209/1 90/210/1
f 11/1/1 3/211/1 73/212/1
f 73/212/1 86/2/1 11/1/1
f 3/211/1 93/213/1 73/212/1
f 90/210/1 1/209/1 2/3/1
f 2/3/1 86/2/1 90/210/1
f 83/214/2 3/215/2 91/216/2
f 7/4/2 6/217/2 74/218/2
f 74/218/2 87/5/2 7/4/2
f 6/217/2 94/219/2 74/218/2
f 91/216/2 3/215/2 11/6/2
f 11/6/2 87/5/2 91/216/2
f 84/220/3 6/221/3 72/222/3
f 5/7/3 4/223/3 75/224/3
f 4/223/3 95/225/3 75/224/3
f 72/222/3 6/221/3 7/9/3
f 75/224/3 71/8/3 5/7/3
f 71/8/3 72/222/3 7/9/3
f 85/226/4 4/227/4 92/228/4
f 2/10/4 1/209/4 76/229/4
f 76/229/4 88/11/4 2/10/4
f 1/209/4 96/230/4 76/229/4
f 92/228/4 4/227/4 5/12/4
f 5/12/4 88/11/4 92/228/4
f 95/13/5 4/231/5 85/14/5
f 11/16/6 2/232/6 5/17/6
f 21/19/4 14/233/4 51/20/4
f 16/25/4 49/234/4 23/26/4
f 9/30/2 42/58/2 29/67/2
f 49/33/3 16/235/3 56/236/3
f 56/236/3 62/31/3 49/33/3
f 16/235/3 18/237/3 56/236/3
f 21/19/4 52/21/4 38/51/4
f 10/37/1 57/122/1 58/38/1
f 15/34/1 35/238/1 26/35/1
f 15/49/4 41/48/4 35/239/4
f 12/55/2 34/68/2 27/56/2
f 20/47/4 45/50/4 37/240/4
f 23/23/1 44/131/1 59/40/1
f 54/41/1 8/24/1 23/23/1
f 14/233/4 31/241/4 51/20/4
f 20/47/4 37/240/4 53/242/4
f 19/44/2 58/243/2 55/45/2
f 20/47/4 53/242/4 41/48/4
f 22/43/4 39/42/4 45/50/4
f 13/57/2 30/244/2 48/245/2
f 25/54/3 17/72/3 55/246/3
f 55/246/3 60/52/3 25/54/3
f 13/57/2 27/56/2 30/244/2
f 11/28/2 26/247/2 33/29/2
f 8/59/2 54/248/2 56/60/2
f 13/57/2 48/245/2 47/62/2
f 7/63/2 47/62/2 32/249/2
f 14/66/3 32/65/3 31/250/3
f 57/71/4 10/251/4 5/252/4
f 5/252/4 25/69/4 57/71/4
f 28/74/6 27/107/6 34/75/6
f 37/83/6 29/253/6 42/84/6
f 38/77/7 30/254/7 27/78/7
f 25/86/6 36/120/6 50/87/6
f 45/106/6 40/105/6 46/76/6
f 51/89/8 47/255/8 48/90/8
f 51/94/6 32/93/6 47/256/6
f 52/257/6 48/95/6 38/97/6
f 45/98/9 34/258/9 29/99/9
f 49/101/6 43/133/6 44/102/6
f 53/259/10 42/108/10 41/110/10
f 35/82/6 33/81/6 26/260/6
f 40/105/6 27/107/6 28/74/6
f 40/105/6 28/74/6 46/76/6
f 63/111/2 64/261/2 66/112/2
f 54/114/11 59/135/11 62/115/11
f 58/117/11 61/137/11 60/118/11
f 36/120/6 66/262/6 64/121/6
f 50/124/1 64/263/1 63/125/1
f 58/38/1 24/123/1 50/124/1
f 67/127/2 68/264/2 69/128/2
f 62/31/3 70/265/3 69/130/3
f 44/131/1 68/266/1 67/132/1
f 43/133/6 69/267/6 68/134/6
f 59/135/5 67/268/5 70/136/5
f 61/137/5 63/269/5 65/138/5
f 60/52/3 65/270/3 66/139/3
f 109/145/5 89/144/5 111/164/5
f 98/271/5 78/198/5 109/145/5
f 84/146/12 72/272/12 99/147/12
f 100/152/14 76/273/14 96/153/14
f 110/143/5 103/158/5 81/159/5
f 71/274/5 75/157/5 110/143/5
f 89/144/5 102/160/5 97/161/5
f 104/140/5 92/156/5 88/141/5
f 81/159/5 101/155/5 104/140/5
f 97/161/5 100/142/5 80/162/5
f 111/164/5 97/161/5 77/163/5
f 77/163/5 80/162/5 90/165/5
f 105/167/5 96/275/5 1/168/5
f 80/170/15 105/174/15 82/171/15
f 87/175/5 109/145/5 106/176/5
f 107/151/12 79/150/12 73/178/12
f 83/180/5 107/276/5 93/181/5
f 91/183/14 106/277/14 107/184/14
f 79/186/5 77/163/5 86/166/5
f 98/188/18 108/148/18 99/147/18
f 94/190/17 108/278/17 98/191/17
f 6/193/5 84/279/5 108/194/5
f 74/196/5 98/271/5 109/145/5
f 78/198/5 110/143/5 109/145/5
f 72/199/5 71/274/5 110/143/5
f 106/176/5 111/164/5 79/186/5
f 100/142/5 88/141/5 76/280/5
f 97/161/5 104/140/5 100/142/5
f 112/200/17 85/281/17 92/201/17
f 103/203/19 112/207/19 101/204/19
f 75/206/15 95/282/15 112/207/15
