# Blender v2.78 (sub 0) OBJ File: 'assets.blend'
# www.blender.org
mtllib housewithtexture.mtl
o Cube_Cube.001
v -8.000000 0.000000 8.000000
v -8.000000 0.000000 -8.000000
v 8.000000 0.000000 8.000000
v 8.000000 0.000000 -8.000000
v 6.000000 1.000000 8.000000
v 3.999969 1.000062 7.389126
v 6.333333 1.000000 7.000000
v -7.000000 1.000000 -7.000000
v 4.000000 1.000000 8.000000
v 6.500000 2.000000 8.000000
v 3.500000 2.000000 8.000000
v -6.998671 1.000000 6.889619
v -7.166667 2.000000 -7.500000
v 7.000000 1.000000 -7.000000
v 7.000000 2.000000 -7.500000
v 7.499515 1.998021 -7.082093
v 7.000000 2.000000 7.500000
v 7.000000 1.000000 7.000000
v 7.500000 2.000000 7.000000
v 3.500000 2.000000 7.500000
v 6.000000 1.000000 7.333333
v -7.500000 2.000000 7.166667
v 3.583089 1.000005 7.000003
v 7.500000 2.000000 7.500000
v 7.500000 2.000000 -7.500000
v -7.498601 2.000631 -7.390138
v 6.500000 2.000000 7.500000
v -7.390203 2.000595 7.498366
v -8.000000 7.000000 -8.000000
v 8.000000 7.000000 8.000000
v 8.000000 7.000000 -8.000000
v 6.505820 7.000000 8.000000
v -8.000000 7.000000 8.000000
v 6.500000 7.000000 8.000000
v 7.500000 7.000000 -7.500000
v -7.500000 7.000000 7.500000
v 7.500000 7.000000 7.500000
v -7.500000 7.000000 -7.500000
v 6.500000 7.000000 7.500000
v 3.500000 6.575134 7.500000
v 3.500000 6.572977 8.000000
v 6.505820 6.575134 7.500000
v 6.505820 7.000000 7.500000
v 6.505820 6.572977 8.000000
vt 0.1684 0.5384
vt 0.3368 0.6923
vt 0.1684 0.6923
vt 0.9947 0.9232
vt 0.9895 0.8462
vt 0.9947 0.8462
vt 0.6737 0.5385
vt 0.6781 0.5386
vt 0.6737 0.5386
vt 0.8263 0.5386
vt 0.8316 0.5385
vt 0.8316 0.5386
vt 0.9842 0.8135
vt 0.9895 0.4618
vt 0.9895 0.8135
vt 0.9895 0.0769
vt 0.9883 0.0770
vt 0.9842 0.0000
vt 0.9947 0.0770
vt 1.0000 0.4616
vt 0.9895 0.4616
vt 0.9895 0.8906
vt 0.9830 0.8906
vt 1.0000 0.0000
vt 0.9947 0.0000
vt 1.0000 0.9231
vt 0.8351 0.0770
vt 0.8316 0.0770
vt 0.8380 0.0000
vt 0.9947 0.4616
vt 0.4895 0.5386
vt 0.4842 0.5713
vt 0.4842 0.5384
vt 0.6527 0.5384
vt 0.6527 0.5711
vt 0.6211 0.5711
vt 0.4895 0.5673
vt 0.4947 0.5384
vt 0.4947 0.5673
vt 0.1684 0.5384
vt 0.1684 0.0000
vt 0.1842 0.3846
vt 0.1842 0.0000
vt 0.1895 0.4615
vt 0.2105 0.4615
vt 0.3368 0.5384
vt 0.2158 0.3846
vt 0.2158 0.0328
vt 0.1841 0.0328
vt 0.1841 0.0000
vt 0.3368 0.0000
vt 0.1684 0.6923
vt 0.0000 0.6923
vt 0.1632 0.6875
vt 0.0000 0.5528
vt 0.0053 0.5528
vt 0.1684 0.5384
vt 0.1632 0.5432
vt 0.0053 0.5432
vt 0.0053 0.5529
vt 0.0000 0.5529
vt 0.0000 0.5384
vt 0.0053 0.6875
vt 0.3368 0.5384
vt 0.9895 0.9232
vt 0.6789 0.4616
vt 0.4526 0.5384
vt 0.4737 0.5384
vt 0.4730 0.5435
vt 0.4526 0.5443
vt 0.8263 0.4616
vt 0.9895 0.4616
vt 0.8316 0.4616
vt 0.3368 0.0000
vt 0.5053 0.0000
vt 0.5053 0.5384
vt 0.3368 0.5384
vt 0.9842 0.4616
vt 0.6219 1.0000
vt 0.5105 1.0000
vt 0.5064 0.9230
vt 0.6211 0.9230
vt 0.9895 0.0770
vt 1.0000 0.0770
vt 0.9789 0.8905
vt 0.6772 0.0770
vt 0.6789 0.0000
vt 0.8263 0.0000
vt 0.8263 0.0770
vt 0.8316 0.4616
vt 0.8316 0.0770
vt 0.6737 0.4616
vt 0.6737 0.0770
vt 0.6737 0.5384
vt 0.5053 0.5384
vt 0.5053 0.0000
vt 0.6737 0.0000
vt 0.0000 0.0000
vt 0.1684 0.0000
vt 0.0000 0.5384
vt 0.1684 0.5384
vt 0.9895 0.4616
vt 0.4895 0.5713
vt 0.4895 0.5384
vt 0.4842 0.6827
vt 0.3368 0.6827
vt 0.3368 0.5491
vt 0.4482 0.5481
vt 0.4772 0.5481
vt 0.4842 0.5481
vt 0.5053 0.5384
vt 0.6737 0.9232
vt 0.8316 0.9232
vn 0.0000 -1.0000 0.0000
vn -0.8944 0.4472 0.0000
vn 0.0000 1.0000 0.0047
vn 0.0000 1.0000 0.0000
vn 1.0000 0.0000 0.0000
vn 0.2788 0.4663 0.8396
vn 0.0000 0.0000 -1.0000
vn 0.8944 0.4472 0.0000
vn 0.0000 0.4472 -0.8944
vn -0.6396 0.4264 -0.6396
vn 0.8270 0.4907 -0.2746
vn -1.0000 0.0000 0.0000
vn 0.0000 -1.0000 -0.0043
vn 0.0000 0.0000 1.0000
vn -0.5982 0.3584 0.7167
vn 0.0000 1.0000 0.0001
vn -0.6667 0.3333 -0.6667
vn -0.8942 0.4476 0.0000
vn 1.0000 0.0003 0.0001
vn 0.9491 0.0209 -0.3142
vn 0.0089 0.5223 -0.8527
vn 0.0002 0.4472 -0.8944
vn 0.6286 0.3890 -0.6735
vn 0.8940 0.4481 0.0001
vn 0.8951 0.4460 -0.0001
vn 0.0000 0.4472 0.8944
vn 0.3142 0.0209 0.9491
vn -0.0001 1.0000 -0.0000
vn 0.0000 0.0003 -1.0000
vn 0.0002 0.0000 -1.0000
vn -1.0000 0.0000 -0.0012
vn -1.0000 0.0001 0.0000
usemtl Material
s off
f 4/1/1 1/2/1 2/3/1
f 21/4/2 10/5/2 27/6/2
f 15/7/3 16/8/3 25/9/3
f 19/10/4 17/11/4 24/12/4
f 20/13/5 41/14/5 11/15/5
f 13/16/6 26/17/6 8/18/6
f 17/19/7 39/20/7 37/21/7
f 20/13/8 9/22/8 6/23/8
f 7/24/9 17/19/9 18/25/9
f 7/26/10 21/4/10 27/6/10
f 22/27/11 28/28/11 12/29/11
f 10/5/12 39/30/12 27/6/12
f 42/31/5 32/32/5 44/33/5
f 43/34/7 42/35/7 40/36/7
f 40/37/13 44/38/13 41/39/13
f 3/40/14 30/41/14 10/42/14
f 30/41/14 34/43/14 10/42/14
f 3/40/14 10/42/14 5/44/14
f 3/40/14 5/44/14 9/45/14
f 1/46/14 3/40/14 9/45/14
f 1/46/14 9/45/14 11/47/14
f 1/46/14 11/47/14 41/48/14
f 41/48/14 44/49/14 32/50/14
f 33/51/14 1/46/14 41/48/14
f 32/50/14 33/51/14 41/48/14
f 29/52/4 33/53/4 38/54/4
f 33/53/4 32/55/4 43/56/4
f 31/57/4 29/52/4 38/54/4
f 31/57/4 35/58/4 37/59/4
f 39/60/4 34/61/4 30/62/4
f 37/59/4 39/60/4 30/62/4
f 30/62/4 31/57/4 37/59/4
f 33/53/4 43/56/4 36/63/4
f 36/63/4 38/54/4 33/53/4
f 38/54/4 35/58/4 31/57/4
f 4/1/1 3/64/1 1/2/1
f 21/4/2 5/65/2 10/5/2
f 15/7/15 14/66/15 16/8/15
f 9/67/4 5/68/4 21/69/4
f 21/69/16 6/70/16 9/67/16
f 19/10/17 18/71/17 17/11/17
f 14/66/18 18/71/18 16/8/18
f 18/71/2 19/10/2 16/8/2
f 22/27/19 26/17/19 38/72/19
f 28/28/20 22/27/20 36/73/20
f 22/27/5 38/72/5 36/73/5
f 3/74/5 4/75/5 31/76/5
f 31/76/5 30/77/5 3/74/5
f 20/13/5 40/78/5 41/14/5
f 23/79/21 12/80/21 28/81/21
f 28/81/22 20/82/22 23/79/22
f 37/21/7 24/83/7 17/19/7
f 17/19/7 27/84/7 39/20/7
f 20/13/8 11/15/8 9/22/8
f 23/85/23 20/13/23 6/23/23
f 22/27/24 12/29/24 26/17/24
f 12/29/25 8/18/25 26/17/25
f 13/86/26 8/87/26 14/88/26
f 14/88/26 15/89/26 13/86/26
f 7/24/9 27/84/9 17/19/9
f 13/86/14 15/89/14 35/90/14
f 15/89/14 25/91/14 35/90/14
f 38/92/27 26/93/27 13/86/27
f 35/90/14 38/92/14 13/86/14
f 2/94/12 1/95/12 33/96/12
f 33/96/12 29/97/12 2/94/12
f 4/98/7 2/99/7 31/100/7
f 2/99/7 29/101/7 31/100/7
f 10/5/12 34/102/12 39/30/12
f 42/31/5 43/103/5 32/32/5
f 40/37/13 42/104/13 44/38/13
f 14/105/4 8/106/4 12/107/4
f 14/105/4 12/107/4 23/108/4
f 14/105/4 21/69/4 7/109/4
f 18/110/4 14/105/4 7/109/4
f 14/105/4 6/70/4 21/69/4
f 23/108/28 6/70/28 14/105/28
f 28/81/29 36/111/29 40/36/29
f 36/111/7 43/34/7 40/36/7
f 20/82/30 28/81/30 40/36/30
f 25/9/31 16/8/31 35/112/31
f 16/8/32 37/113/32 35/112/32
f 16/8/12 19/10/12 37/113/12
f 19/10/12 24/12/12 37/113/12
